<svg width="272" height="140" viewBox="0 0 272 140" fill="none" xmlns="http://www.w3.org/2000/svg">
<rect x="52" width="38" height="38" rx="4" fill="#D9D9D9"/>
<path d="M74.4694 13.6133H67.876V25.459H74.4694V13.6133Z" fill="#FF5A00"/>
<path d="M74.4694 13.6133H67.876V25.459H74.4694V13.6133Z" fill="url(#paint0_linear_3275_3396)"/>
<path d="M68.3147 19.5346C68.3147 17.1279 69.4461 14.9919 71.1822 13.6118C69.9045 12.6072 68.2927 12 66.5346 12C62.3699 12 59 15.3699 59 19.5346C59 23.6994 62.3699 27.0693 66.5346 27.0693C68.2927 27.0693 69.9045 26.4621 71.1822 25.4575C69.4436 24.0969 68.3147 21.9413 68.3147 19.5346Z" fill="#EB001B"/>
<path d="M68.3147 19.5346C68.3147 17.1279 69.4461 14.9919 71.1822 13.6118C69.9045 12.6072 68.2927 12 66.5346 12C62.3699 12 59 15.3699 59 19.5346C59 23.6994 62.3699 27.0693 66.5346 27.0693C68.2927 27.0693 69.9045 26.4621 71.1822 25.4575C69.4436 24.0969 68.3147 21.9413 68.3147 19.5346Z" fill="url(#paint1_linear_3275_3396)"/>
<path d="M83.3648 19.5346C83.3648 23.6994 79.995 27.0693 75.8302 27.0693C74.0721 27.0693 72.4603 26.4621 71.1826 25.4575C72.9407 24.0749 74.0502 21.9413 74.0502 19.5346C74.0502 17.1279 72.9188 14.9919 71.1826 13.6118C72.4579 12.6072 74.0697 12 75.8278 12C79.995 12 83.3648 15.3918 83.3648 19.5346Z" fill="#F79E1B"/>
<path d="M83.3648 19.5346C83.3648 23.6994 79.995 27.0693 75.8302 27.0693C74.0721 27.0693 72.4603 26.4621 71.1826 25.4575C72.9407 24.0749 74.0502 21.9413 74.0502 19.5346C74.0502 17.1279 72.9188 14.9919 71.1826 13.6118C72.4579 12.6072 74.0697 12 75.8278 12C79.995 12 83.3648 15.3918 83.3648 19.5346Z" fill="url(#paint2_linear_3275_3396)"/>
<rect x="95" width="38" height="38" rx="4" fill="#E8E8ED"/>
<rect x="224" width="38" height="38" rx="4" fill="#E8E8ED"/>
<rect x="9" width="38" height="38" rx="4" fill="#E8E8ED"/>
<rect x="138" width="38" height="38" rx="4" fill="#E8E8ED"/>
<rect x="181" width="38" height="38" rx="4" fill="#E8E8ED"/>
<rect x="52" y="42" width="38" height="38" rx="4" fill="#E8E8ED"/>
<rect x="95" y="42" width="38" height="38" rx="4" fill="#E8E8ED"/>
<rect x="138" y="42" width="38" height="38" rx="4" fill="#D9D9D9"/>
<g clip-path="url(#clip0_3275_3396)">
<path fill-rule="evenodd" clip-rule="evenodd" d="M194.712 55.0881L194.495 54.0574H191.479V66.2791H194.963V57.9847C195.788 56.9066 197.178 57.1164 197.621 57.2537V54.0589C197.157 53.8921 195.527 53.5859 194.712 55.0867V55.0881ZM187.718 51.0301L184.314 51.7531L184.3 62.9383C184.3 65.0011 185.851 66.527 187.921 66.527C189.06 66.527 189.902 66.31 190.368 66.0649V63.2258C189.921 63.4041 187.721 64.0438 187.721 61.9896V57.0302H190.368V54.0567H187.721L187.718 51.0301ZM178.278 57.6038C178.278 57.0589 178.731 56.8491 179.463 56.8491C180.674 56.8753 181.862 57.1829 182.934 57.7475V54.4628C181.829 54.0283 180.65 53.8115 179.463 53.8246C176.642 53.8246 174.75 55.3023 174.75 57.7691C174.75 61.6288 180.051 61.002 180.051 62.6659C180.051 63.3171 179.49 63.5183 178.712 63.5183C177.557 63.5183 176.067 63.0411 174.897 62.4043V65.7321C176.101 66.2557 177.399 66.5289 178.712 66.5349C181.61 66.5349 183.608 65.1032 183.608 62.5926C183.608 58.4267 178.277 59.1713 178.277 57.6023L178.278 57.6038ZM154.976 55.8392C154.976 54.8545 155.796 54.4736 157.12 54.4736C159.311 54.5209 161.461 55.0773 163.4 56.0987V50.1546C161.4 49.3688 159.268 48.9771 157.12 49.001C152.016 49.001 148.594 51.6741 148.594 56.1375C148.594 63.1209 158.183 61.9867 158.183 64.9968C158.183 66.1741 157.177 66.5393 155.761 66.5393C153.673 66.5393 150.976 65.6753 148.861 64.5253V70.547C151.039 71.4946 153.387 71.9891 155.762 72.0003C161.007 72.0003 164.622 69.4092 164.622 64.8682C164.622 57.3313 154.976 58.6776 154.976 55.8407V55.8392Z" fill="#6772E5"/>
<path fill-rule="evenodd" clip-rule="evenodd" d="M194.712 55.0881L194.495 54.0574H191.479V66.2791H194.963V57.9847C195.788 56.9066 197.178 57.1164 197.621 57.2537V54.0589C197.157 53.8921 195.527 53.5859 194.712 55.0867V55.0881ZM187.718 51.0301L184.314 51.7531L184.3 62.9383C184.3 65.0011 185.851 66.527 187.921 66.527C189.06 66.527 189.902 66.31 190.368 66.0649V63.2258C189.921 63.4041 187.721 64.0438 187.721 61.9896V57.0302H190.368V54.0567H187.721L187.718 51.0301ZM178.278 57.6038C178.278 57.0589 178.731 56.8491 179.463 56.8491C180.674 56.8753 181.862 57.1829 182.934 57.7475V54.4628C181.829 54.0283 180.65 53.8115 179.463 53.8246C176.642 53.8246 174.75 55.3023 174.75 57.7691C174.75 61.6288 180.051 61.002 180.051 62.6659C180.051 63.3171 179.49 63.5183 178.712 63.5183C177.557 63.5183 176.067 63.0411 174.897 62.4043V65.7321C176.101 66.2557 177.399 66.5289 178.712 66.5349C181.61 66.5349 183.608 65.1032 183.608 62.5926C183.608 58.4267 178.277 59.1713 178.277 57.6023L178.278 57.6038ZM154.976 55.8392C154.976 54.8545 155.796 54.4736 157.12 54.4736C159.311 54.5209 161.461 55.0773 163.4 56.0987V50.1546C161.4 49.3688 159.268 48.9771 157.12 49.001C152.016 49.001 148.594 51.6741 148.594 56.1375C148.594 63.1209 158.183 61.9867 158.183 64.9968C158.183 66.1741 157.177 66.5393 155.761 66.5393C153.673 66.5393 150.976 65.6753 148.861 64.5253V70.547C151.039 71.4946 153.387 71.9891 155.762 72.0003C161.007 72.0003 164.622 69.4092 164.622 64.8682C164.622 57.3313 154.976 58.6776 154.976 55.8407V55.8392Z" fill="url(#paint3_linear_3275_3396)"/>
</g>
<rect x="181" y="42" width="38" height="38" rx="4" fill="#E8E8ED"/>
<rect x="95" y="84" width="38" height="38" rx="4" fill="#D9D9D9"/>
<path d="M109.491 113L109.869 110.638L109.026 110.619H105L107.798 93.1905C107.807 93.1379 107.835 93.0889 107.876 93.054C107.917 93.0192 107.97 93 108.025 93H114.814C117.067 93 118.623 93.4607 119.435 94.3701C119.815 94.7967 120.058 95.2424 120.175 95.733C120.298 96.2478 120.3 96.8628 120.18 97.6129L120.171 97.6676V98.1482L120.552 98.3601C120.873 98.5272 121.127 98.7184 121.323 98.9374C121.648 99.3022 121.859 99.7657 121.948 100.315C122.04 100.881 122.01 101.553 121.859 102.315C121.685 103.191 121.405 103.953 121.025 104.578C120.677 105.153 120.232 105.63 119.705 106C119.201 106.351 118.602 106.617 117.926 106.788C117.27 106.956 116.522 107.041 115.702 107.041H115.174C114.796 107.041 114.429 107.174 114.141 107.414C113.853 107.658 113.661 107.993 113.603 108.358L113.563 108.571L112.894 112.733L112.864 112.886C112.856 112.935 112.842 112.959 112.822 112.975C112.804 112.99 112.778 113 112.752 113H109.491Z" fill="#253B80"/>
<path d="M109.491 113L109.869 110.638L109.026 110.619H105L107.798 93.1905C107.807 93.1379 107.835 93.0889 107.876 93.054C107.917 93.0192 107.97 93 108.025 93H114.814C117.067 93 118.623 93.4607 119.435 94.3701C119.815 94.7967 120.058 95.2424 120.175 95.733C120.298 96.2478 120.3 96.8628 120.18 97.6129L120.171 97.6676V98.1482L120.552 98.3601C120.873 98.5272 121.127 98.7184 121.323 98.9374C121.648 99.3022 121.859 99.7657 121.948 100.315C122.04 100.881 122.01 101.553 121.859 102.315C121.685 103.191 121.405 103.953 121.025 104.578C120.677 105.153 120.232 105.63 119.705 106C119.201 106.351 118.602 106.617 117.926 106.788C117.27 106.956 116.522 107.041 115.702 107.041H115.174C114.796 107.041 114.429 107.174 114.141 107.414C113.853 107.658 113.661 107.993 113.603 108.358L113.563 108.571L112.894 112.733L112.864 112.886C112.856 112.935 112.842 112.959 112.822 112.975C112.804 112.99 112.778 113 112.752 113H109.491Z" fill="url(#paint4_linear_3275_3396)"/>
<path d="M121.174 98C121.154 98.1193 121.131 98.2412 121.105 98.3665C120.212 102.599 117.156 104.061 113.253 104.061H111.266C110.788 104.061 110.386 104.38 110.312 104.815L109.294 110.77L109.006 112.458C108.958 112.743 109.196 113 109.508 113H113.033C113.45 113 113.805 112.72 113.87 112.34L113.905 112.175L114.569 108.289L114.611 108.076C114.676 107.694 115.031 107.414 115.449 107.414H115.976C119.391 107.414 122.064 106.135 122.845 102.433C123.172 100.886 123.003 99.5946 122.139 98.6864C121.878 98.4125 121.553 98.1853 121.174 98Z" fill="#179BD7"/>
<path d="M121.174 98C121.154 98.1193 121.131 98.2412 121.105 98.3665C120.212 102.599 117.156 104.061 113.253 104.061H111.266C110.788 104.061 110.386 104.38 110.312 104.815L109.294 110.77L109.006 112.458C108.958 112.743 109.196 113 109.508 113H113.033C113.45 113 113.805 112.72 113.87 112.34L113.905 112.175L114.569 108.289L114.611 108.076C114.676 107.694 115.031 107.414 115.449 107.414H115.976C119.391 107.414 122.064 106.135 122.845 102.433C123.172 100.886 123.003 99.5946 122.139 98.6864C121.878 98.4125 121.553 98.1853 121.174 98Z" fill="url(#paint5_linear_3275_3396)"/>
<path d="M120.054 96.3572C119.916 96.313 119.773 96.2727 119.627 96.2365C119.48 96.2011 119.329 96.1698 119.174 96.1424C118.632 96.0459 118.037 96 117.4 96H112.024C111.892 96 111.766 96.033 111.653 96.0925C111.405 96.2237 111.221 96.4819 111.177 96.7981L110.033 104.767L110 105C110.075 104.475 110.483 104.089 110.966 104.089H112.978C116.931 104.089 120.025 102.323 120.93 97.2148C120.957 97.0636 120.98 96.9163 121 96.7723C120.771 96.6388 120.523 96.5245 120.256 96.4272C120.191 96.4031 120.123 96.3797 120.054 96.3572Z" fill="#222D65"/>
<path d="M120.054 96.3572C119.916 96.313 119.773 96.2727 119.627 96.2365C119.48 96.2011 119.329 96.1698 119.174 96.1424C118.632 96.0459 118.037 96 117.4 96H112.024C111.892 96 111.766 96.033 111.653 96.0925C111.405 96.2237 111.221 96.4819 111.177 96.7981L110.033 104.767L110 105C110.075 104.475 110.483 104.089 110.966 104.089H112.978C116.931 104.089 120.025 102.323 120.93 97.2148C120.957 97.0636 120.98 96.9163 121 96.7723C120.771 96.6388 120.523 96.5245 120.256 96.4272C120.191 96.4031 120.123 96.3797 120.054 96.3572Z" fill="url(#paint6_linear_3275_3396)"/>
<path d="M111.05 97.4521C111.094 97.1738 111.279 96.9465 111.528 96.8318C111.641 96.7794 111.767 96.7504 111.899 96.7504H117.29C117.929 96.7504 118.525 96.7907 119.069 96.8757C119.225 96.8998 119.376 96.9274 119.523 96.9586C119.67 96.9904 119.813 97.0258 119.951 97.0648C120.02 97.0846 120.088 97.1051 120.155 97.1257C120.423 97.2114 120.671 97.3126 120.901 97.4295C121.171 95.7674 120.899 94.6358 119.968 93.6111C118.942 92.483 117.091 92 114.722 92H107.844C107.36 92 106.947 92.3399 106.872 92.8023L104.007 110.34C103.951 110.687 104.228 111 104.59 111H108.837L109.903 104.467L111.05 97.4521Z" fill="#253B80"/>
<path d="M111.05 97.4521C111.094 97.1738 111.279 96.9465 111.528 96.8318C111.641 96.7794 111.767 96.7504 111.899 96.7504H117.29C117.929 96.7504 118.525 96.7907 119.069 96.8757C119.225 96.8998 119.376 96.9274 119.523 96.9586C119.67 96.9904 119.813 97.0258 119.951 97.0648C120.02 97.0846 120.088 97.1051 120.155 97.1257C120.423 97.2114 120.671 97.3126 120.901 97.4295C121.171 95.7674 120.899 94.6358 119.968 93.6111C118.942 92.483 117.091 92 114.722 92H107.844C107.36 92 106.947 92.3399 106.872 92.8023L104.007 110.34C103.951 110.687 104.228 111 104.59 111H108.837L109.903 104.467L111.05 97.4521Z" fill="url(#paint7_linear_3275_3396)"/>
<rect x="138" y="84" width="38" height="38" rx="4" fill="#E8E8ED"/>
<path fill-rule="evenodd" clip-rule="evenodd" d="M8 0.5C36.8333 0.5 94.5 24.7 94.5 121.5H8V0.5ZM176 121.5C176 24.7 233.667 0.5 262.5 0.5V121.5H176Z" fill="white"/>
<defs>
<linearGradient id="paint0_linear_3275_3396" x1="67.876" y1="13.6133" x2="78.951" y2="20.9519" gradientUnits="userSpaceOnUse">
<stop stop-color="#B7B7B7"/>
<stop offset="1" stop-color="#515151"/>
</linearGradient>
<linearGradient id="paint1_linear_3275_3396" x1="59" y1="12" x2="74.2877" y2="26.7128" gradientUnits="userSpaceOnUse">
<stop stop-color="#B7B7B7"/>
<stop offset="1" stop-color="#515151"/>
</linearGradient>
<linearGradient id="paint2_linear_3275_3396" x1="71.1826" y1="12" x2="86.4703" y2="26.7128" gradientUnits="userSpaceOnUse">
<stop stop-color="#B7B7B7"/>
<stop offset="1" stop-color="#515151"/>
</linearGradient>
<linearGradient id="paint3_linear_3275_3396" x1="148.594" y1="49" x2="164.524" y2="89.4241" gradientUnits="userSpaceOnUse">
<stop stop-color="#B7B7B7"/>
<stop offset="1" stop-color="#515151"/>
</linearGradient>
<linearGradient id="paint4_linear_3275_3396" x1="105" y1="93" x2="125.303" y2="113.545" gradientUnits="userSpaceOnUse">
<stop stop-color="#B7B7B7"/>
<stop offset="1" stop-color="#515151"/>
</linearGradient>
<linearGradient id="paint5_linear_3275_3396" x1="109" y1="98" x2="124.144" y2="114.827" gradientUnits="userSpaceOnUse">
<stop stop-color="#B7B7B7"/>
<stop offset="1" stop-color="#515151"/>
</linearGradient>
<linearGradient id="paint6_linear_3275_3396" x1="110" y1="96" x2="118.53" y2="108.412" gradientUnits="userSpaceOnUse">
<stop stop-color="#867B7B"/>
<stop offset="1" stop-color="#515151"/>
</linearGradient>
<linearGradient id="paint7_linear_3275_3396" x1="104" y1="92" x2="123.251" y2="112.506" gradientUnits="userSpaceOnUse">
<stop stop-color="#B7B7B7"/>
<stop offset="1" stop-color="#515151"/>
</linearGradient>
<clipPath id="clip0_3275_3396">
<rect width="23" height="23" fill="white" transform="translate(145 49)"/>
</clipPath>
</defs>
</svg>
