<svg width="272" height="140" viewBox="0 0 272 140" fill="none" xmlns="http://www.w3.org/2000/svg">
<g clip-path="url(#clip0_3275_3496)">
<path d="M138.03 19.8616V0H0V19.8616H56.3284H138.03Z" fill="#FCFCFC"/>
<path d="M272 140V30.519L196.896 92.0415L213.642 117.716V140H272Z" fill="#FCFCFC"/>
<path d="M138.03 140V19.8616H56.3284L29.4328 85.7439H100.478V117.716V140H138.03Z" fill="#F9F9F9"/>
<path d="M272 30.519V0H213.642V14.0484L196.896 22.7682V92.0415L272 30.519Z" fill="#F9F9F9"/>
<path d="M56.3284 19.8616H0V140H100.478V117.716V85.7439H29.4328L56.3284 19.8616Z" fill="#FCFCFC"/>
<path d="M213.642 117.716L196.896 92.0415V22.7682L213.642 14.0484V0H138.03V19.8616V140H213.642V117.716Z" fill="#FCFCFC"/>
<path d="M138.03 0H213.642M138.03 0V19.8616M138.03 0H0V19.8616M138.03 140H213.642M138.03 140V19.8616M138.03 140H100.478M272 30.519V140H213.642M272 30.519V0H213.642M272 30.519L196.896 92.0415M196.896 92.0415L213.642 117.716V140M196.896 92.0415V22.7682L213.642 14.0484V0M138.03 19.8616H56.3284M0 19.8616H56.3284M0 19.8616V140H100.478M56.3284 19.8616L29.4328 85.7439H100.478V117.716V140" stroke="#E8E8ED"/>
<path d="M66 85C69 82 72 79.3137 72 76C72 72.6863 69.3137 70 66 70C62.6863 70 60 72.6863 60 76C60 79.3137 63 82 66 85Z" stroke="#7D7D7D" stroke-width="2" stroke-linecap="round" stroke-linejoin="round"/>
<path d="M214 117C217 114 220 111.314 220 108C220 104.686 217.314 102 214 102C210.686 102 208 104.686 208 108C208 111.314 211 114 214 117Z" stroke="#7D7D7D" stroke-width="2" stroke-linecap="round" stroke-linejoin="round"/>
<path d="M251 46C254 43 257 40.3137 257 37C257 33.6863 254.314 31 251 31C247.686 31 245 33.6863 245 37C245 40.3137 248 43 251 46Z" stroke="#7D7D7D" stroke-width="2" stroke-linecap="round" stroke-linejoin="round"/>
</g>
<defs>
<clipPath id="clip0_3275_3496">
<rect width="272" height="140" fill="white"/>
</clipPath>
</defs>
</svg>
