<svg width="272" height="140" viewBox="0 0 272 140" fill="none" xmlns="http://www.w3.org/2000/svg">
<g clip-path="url(#clip0_3282_3773)">
<circle cx="136" cy="70" r="88.5" stroke="url(#paint0_linear_3282_3773)" stroke-opacity="0.15"/>
<circle cx="136" cy="70" r="65.5" stroke="url(#paint1_linear_3282_3773)" stroke-opacity="0.33"/>
<circle cx="135.5" cy="69.5" r="42" stroke="url(#paint2_linear_3282_3773)"/>
<g filter="url(#filter0_d_3282_3773)">
<path d="M135.937 89.853C145.157 86.689 151.729 79.3349 152.76 69.971C153.046 65.9062 153.022 61.8256 152.687 57.7644C152.643 57.1243 152.361 56.5235 151.896 56.0794C151.43 55.6353 150.816 55.3798 150.171 55.3627C146 55.2348 141.152 54.5429 137.406 50.8691C137.014 50.4849 136.487 50.2695 135.937 50.2695C135.387 50.2695 134.86 50.4849 134.468 50.8691C130.721 54.5425 125.874 55.2348 121.703 55.3627C121.059 55.3798 120.444 55.6353 119.979 56.0794C119.513 56.5235 119.231 57.1243 119.187 57.7644C118.852 61.8256 118.828 65.9062 119.113 69.971C120.145 79.3349 126.716 86.689 135.937 89.853Z" fill="white" stroke="url(#paint3_linear_3282_3773)" stroke-linecap="round" stroke-linejoin="round"/>
<path d="M145 66.7724C145 64.1367 142.829 62 140.151 62C138.387 62 136.849 62.9292 136 64.3141C135.151 62.9292 133.612 62 131.849 62C129.171 62 127 64.1367 127 66.7724C127 67.375 127.118 67.9491 127.325 68.4799C128.929 73.019 136 78 136 78C136 78 143.071 73.019 144.675 68.4799C144.882 67.9491 145 67.375 145 66.7724Z" fill="#D9D9D9"/>
<path d="M145 66.7724C145 64.1367 142.829 62 140.151 62C138.387 62 136.849 62.9292 136 64.3141C135.151 62.9292 133.612 62 131.849 62C129.171 62 127 64.1367 127 66.7724C127 67.375 127.118 67.9491 127.325 68.4799C128.929 73.019 136 78 136 78C136 78 143.071 73.019 144.675 68.4799C144.882 67.9491 145 67.375 145 66.7724Z" fill="url(#paint4_linear_3282_3773)"/>
</g>
<g filter="url(#filter1_d_3282_3773)">
<circle cx="215" cy="30" r="10" fill="white"/>
</g>
<path d="M219.744 28.4185C219.565 27.8759 219.216 27.6536 218.91 27.7546C218.663 27.8363 218.522 28.1059 218.57 28.4918L217.398 28.8785C217.171 28.3347 216.769 27.8835 216.263 27.5906L216.689 26.1923C217.054 26.224 217.303 26.0867 217.374 25.8549C217.464 25.5613 217.235 25.2313 216.699 25.068C216.163 24.9045 215.789 25.0511 215.7 25.3446C215.627 25.5818 215.766 25.8411 216.103 26.0189L215.699 27.3441C215.452 27.2695 215.191 27.2284 214.92 27.2284C214.598 27.2284 214.291 27.2878 214.005 27.3916L213.785 26.7862C214.047 26.6261 214.148 26.4154 214.082 26.2329C213.998 26.0018 213.681 25.9046 213.238 26.0659C212.796 26.227 212.615 26.5047 212.699 26.7358C212.767 26.9224 212.988 27.0188 213.304 26.9653L213.539 27.6135C213.146 27.85 212.819 28.1829 212.59 28.5813L211.301 28.0864C211.362 27.6842 211.234 27.4023 210.993 27.3146C210.687 27.2033 210.319 27.4415 210.106 28.0276C209.892 28.6136 210.021 29.0328 210.327 29.1442C210.573 29.2342 210.859 29.0918 211.073 28.7268L212.33 29.2102C212.269 29.4349 212.234 29.6702 212.234 29.9143C212.234 30.3274 212.33 30.7172 212.497 31.067L211.599 31.5852C211.384 31.3449 211.143 31.2819 210.961 31.3871C210.73 31.5205 210.681 31.8686 210.928 32.2961C211.175 32.7237 211.501 32.8557 211.732 32.7224C211.918 32.6147 211.983 32.3657 211.872 32.0491L212.776 31.5272C213.15 32.0242 213.692 32.3866 214.319 32.5303L214.167 33.9309C213.769 33.9606 213.532 34.1299 213.508 34.3588C213.476 34.6491 213.793 34.9212 214.403 34.9872C215.013 35.0534 215.38 34.8553 215.412 34.5651C215.437 34.3309 215.232 34.1101 214.832 33.9983L214.984 32.5971C215.646 32.5813 216.247 32.3266 216.707 31.9154L217.761 32.8063C217.562 33.1546 217.569 33.4475 217.746 33.5972C217.971 33.7866 218.376 33.676 218.774 33.2046C219.173 32.7333 219.215 32.3151 218.991 32.1258C218.81 31.9726 218.51 32.0194 218.192 32.2897L217.151 31.4097C217.438 30.9822 217.606 30.4679 217.606 29.9143C217.606 29.7655 217.591 29.6205 217.567 29.4784L218.77 29.0813C218.96 29.4031 219.227 29.5281 219.469 29.4483C219.775 29.3471 219.923 28.9609 219.744 28.4185Z" fill="black"/>
<path d="M219.744 28.4185C219.565 27.8759 219.216 27.6536 218.91 27.7546C218.663 27.8363 218.522 28.1059 218.57 28.4918L217.398 28.8785C217.171 28.3347 216.769 27.8835 216.263 27.5906L216.689 26.1923C217.054 26.224 217.303 26.0867 217.374 25.8549C217.464 25.5613 217.235 25.2313 216.699 25.068C216.163 24.9045 215.789 25.0511 215.7 25.3446C215.627 25.5818 215.766 25.8411 216.103 26.0189L215.699 27.3441C215.452 27.2695 215.191 27.2284 214.92 27.2284C214.598 27.2284 214.291 27.2878 214.005 27.3916L213.785 26.7862C214.047 26.6261 214.148 26.4154 214.082 26.2329C213.998 26.0018 213.681 25.9046 213.238 26.0659C212.796 26.227 212.615 26.5047 212.699 26.7358C212.767 26.9224 212.988 27.0188 213.304 26.9653L213.539 27.6135C213.146 27.85 212.819 28.1829 212.59 28.5813L211.301 28.0864C211.362 27.6842 211.234 27.4023 210.993 27.3146C210.687 27.2033 210.319 27.4415 210.106 28.0276C209.892 28.6136 210.021 29.0328 210.327 29.1442C210.573 29.2342 210.859 29.0918 211.073 28.7268L212.33 29.2102C212.269 29.4349 212.234 29.6702 212.234 29.9143C212.234 30.3274 212.33 30.7172 212.497 31.067L211.599 31.5852C211.384 31.3449 211.143 31.2819 210.961 31.3871C210.73 31.5205 210.681 31.8686 210.928 32.2961C211.175 32.7237 211.501 32.8557 211.732 32.7224C211.918 32.6147 211.983 32.3657 211.872 32.0491L212.776 31.5272C213.15 32.0242 213.692 32.3866 214.319 32.5303L214.167 33.9309C213.769 33.9606 213.532 34.1299 213.508 34.3588C213.476 34.6491 213.793 34.9212 214.403 34.9872C215.013 35.0534 215.38 34.8553 215.412 34.5651C215.437 34.3309 215.232 34.1101 214.832 33.9983L214.984 32.5971C215.646 32.5813 216.247 32.3266 216.707 31.9154L217.761 32.8063C217.562 33.1546 217.569 33.4475 217.746 33.5972C217.971 33.7866 218.376 33.676 218.774 33.2046C219.173 32.7333 219.215 32.3151 218.991 32.1258C218.81 31.9726 218.51 32.0194 218.192 32.2897L217.151 31.4097C217.438 30.9822 217.606 30.4679 217.606 29.9143C217.606 29.7655 217.591 29.6205 217.567 29.4784L218.77 29.0813C218.96 29.4031 219.227 29.5281 219.469 29.4483C219.775 29.3471 219.923 28.9609 219.744 28.4185Z" fill="url(#paint5_linear_3282_3773)"/>
<g filter="url(#filter2_d_3282_3773)">
<circle cx="80" cy="102" r="10" fill="white"/>
</g>
<path fill-rule="evenodd" clip-rule="evenodd" d="M75.0174 102.402V105.625C75.0174 105.832 75.1848 106 75.3911 106H76.1952C76.2837 106 76.3694 105.969 76.4369 105.911C76.5044 105.854 76.5494 105.774 76.5639 105.686L76.7612 104.5H83.2383L83.4351 105.686C83.4496 105.774 83.4946 105.854 83.5621 105.911C83.6296 105.969 83.7153 106 83.8038 106H84.6084C84.7075 106 84.8026 105.96 84.8726 105.89C84.9427 105.82 84.9821 105.724 84.9821 105.625V102.402C84.9821 101.814 84.8087 101.239 84.4838 100.75L84.0952 100.165C84.0606 100.113 84.0309 100.058 84.0065 100H84.5018C84.5712 100 84.6393 99.9806 84.6983 99.9439C84.7574 99.9073 84.8051 99.8548 84.8361 99.7925L84.9607 99.5425C84.9891 99.4854 85.0025 99.4219 84.9996 99.3581C84.9968 99.2943 84.9777 99.2323 84.9443 99.178C84.9108 99.1236 84.8641 99.0788 84.8086 99.0476C84.753 99.0165 84.6905 99.0001 84.6268 99H83.7863L83.6319 98.227C83.5849 97.9916 83.4713 97.7747 83.3048 97.6023C83.1382 97.43 82.9257 97.3094 82.6927 97.255C81.9643 97.085 81.0665 97 79.9998 97C78.9325 97 78.0352 97.085 77.3068 97.255C77.0737 97.3093 76.8611 97.4299 76.6944 97.6022C76.5278 97.7746 76.4142 97.9915 76.3671 98.227L76.2127 99H75.3732C75.3095 99.0001 75.247 99.0165 75.1914 99.0476C75.1359 99.0788 75.0892 99.1236 75.0557 99.178C75.0223 99.2323 75.0032 99.2943 75.0004 99.3581C74.9975 99.4219 75.0109 99.4854 75.0393 99.5425L75.1639 99.7925C75.1949 99.8548 75.2425 99.9072 75.3015 99.9438C75.3604 99.9804 75.4284 99.9999 75.4977 100H75.9935C75.9691 100.058 75.9394 100.113 75.9048 100.165L75.5157 100.75C75.1908 101.239 75.0174 101.814 75.0174 102.402ZM82.9697 100.002C83.004 100.175 83.061 100.343 83.1391 100.501H76.8604C76.9386 100.343 76.9954 100.175 77.0298 100.002L77.3447 98.4235C77.354 98.3763 77.3766 98.3328 77.4099 98.2982C77.4433 98.2636 77.4858 98.2394 77.5325 98.2285C78.1792 98.0785 79.0033 98 79.9998 98C80.9962 98 81.8203 98.078 82.467 98.229C82.5137 98.2398 82.5563 98.2639 82.5897 98.2984C82.6231 98.3329 82.6459 98.3763 82.6553 98.4235L82.9697 100.002ZM76.7612 103C76.9594 103 77.1495 102.921 77.2897 102.78C77.4298 102.64 77.5086 102.449 77.5086 102.25C77.5086 102.051 77.4298 101.86 77.2897 101.72C77.1495 101.579 76.9594 101.5 76.7612 101.5C76.563 101.5 76.3729 101.579 76.2328 101.72C76.0926 101.86 76.0139 102.051 76.0139 102.25C76.0139 102.449 76.0926 102.64 76.2328 102.78C76.3729 102.921 76.563 103 76.7612 103ZM83.9856 102.25C83.9856 102.449 83.9069 102.64 83.7667 102.78C83.6266 102.921 83.4365 103 83.2383 103C83.0401 103 82.85 102.921 82.7098 102.78C82.5697 102.64 82.4909 102.449 82.4909 102.25C82.4909 102.051 82.5697 101.86 82.7098 101.72C82.85 101.579 83.0401 101.5 83.2383 101.5C83.4365 101.5 83.6266 101.579 83.7667 101.72C83.9069 101.86 83.9856 102.051 83.9856 102.25Z" fill="black"/>
<path fill-rule="evenodd" clip-rule="evenodd" d="M75.0174 102.402V105.625C75.0174 105.832 75.1848 106 75.3911 106H76.1952C76.2837 106 76.3694 105.969 76.4369 105.911C76.5044 105.854 76.5494 105.774 76.5639 105.686L76.7612 104.5H83.2383L83.4351 105.686C83.4496 105.774 83.4946 105.854 83.5621 105.911C83.6296 105.969 83.7153 106 83.8038 106H84.6084C84.7075 106 84.8026 105.96 84.8726 105.89C84.9427 105.82 84.9821 105.724 84.9821 105.625V102.402C84.9821 101.814 84.8087 101.239 84.4838 100.75L84.0952 100.165C84.0606 100.113 84.0309 100.058 84.0065 100H84.5018C84.5712 100 84.6393 99.9806 84.6983 99.9439C84.7574 99.9073 84.8051 99.8548 84.8361 99.7925L84.9607 99.5425C84.9891 99.4854 85.0025 99.4219 84.9996 99.3581C84.9968 99.2943 84.9777 99.2323 84.9443 99.178C84.9108 99.1236 84.8641 99.0788 84.8086 99.0476C84.753 99.0165 84.6905 99.0001 84.6268 99H83.7863L83.6319 98.227C83.5849 97.9916 83.4713 97.7747 83.3048 97.6023C83.1382 97.43 82.9257 97.3094 82.6927 97.255C81.9643 97.085 81.0665 97 79.9998 97C78.9325 97 78.0352 97.085 77.3068 97.255C77.0737 97.3093 76.8611 97.4299 76.6944 97.6022C76.5278 97.7746 76.4142 97.9915 76.3671 98.227L76.2127 99H75.3732C75.3095 99.0001 75.247 99.0165 75.1914 99.0476C75.1359 99.0788 75.0892 99.1236 75.0557 99.178C75.0223 99.2323 75.0032 99.2943 75.0004 99.3581C74.9975 99.4219 75.0109 99.4854 75.0393 99.5425L75.1639 99.7925C75.1949 99.8548 75.2425 99.9072 75.3015 99.9438C75.3604 99.9804 75.4284 99.9999 75.4977 100H75.9935C75.9691 100.058 75.9394 100.113 75.9048 100.165L75.5157 100.75C75.1908 101.239 75.0174 101.814 75.0174 102.402ZM82.9697 100.002C83.004 100.175 83.061 100.343 83.1391 100.501H76.8604C76.9386 100.343 76.9954 100.175 77.0298 100.002L77.3447 98.4235C77.354 98.3763 77.3766 98.3328 77.4099 98.2982C77.4433 98.2636 77.4858 98.2394 77.5325 98.2285C78.1792 98.0785 79.0033 98 79.9998 98C80.9962 98 81.8203 98.078 82.467 98.229C82.5137 98.2398 82.5563 98.2639 82.5897 98.2984C82.6231 98.3329 82.6459 98.3763 82.6553 98.4235L82.9697 100.002ZM76.7612 103C76.9594 103 77.1495 102.921 77.2897 102.78C77.4298 102.64 77.5086 102.449 77.5086 102.25C77.5086 102.051 77.4298 101.86 77.2897 101.72C77.1495 101.579 76.9594 101.5 76.7612 101.5C76.563 101.5 76.3729 101.579 76.2328 101.72C76.0926 101.86 76.0139 102.051 76.0139 102.25C76.0139 102.449 76.0926 102.64 76.2328 102.78C76.3729 102.921 76.563 103 76.7612 103ZM83.9856 102.25C83.9856 102.449 83.9069 102.64 83.7667 102.78C83.6266 102.921 83.4365 103 83.2383 103C83.0401 103 82.85 102.921 82.7098 102.78C82.5697 102.64 82.4909 102.449 82.4909 102.25C82.4909 102.051 82.5697 101.86 82.7098 101.72C82.85 101.579 83.0401 101.5 83.2383 101.5C83.4365 101.5 83.6266 101.579 83.7667 101.72C83.9069 101.86 83.9856 102.051 83.9856 102.25Z" fill="url(#paint6_linear_3282_3773)"/>
</g>
<defs>
<filter id="filter0_d_3282_3773" x="92.216" y="23.5695" width="87.442" height="92.982" filterUnits="userSpaceOnUse" color-interpolation-filters="sRGB">
<feFlood flood-opacity="0" result="BackgroundImageFix"/>
<feColorMatrix in="SourceAlpha" type="matrix" values="0 0 0 0 0 0 0 0 0 0 0 0 0 0 0 0 0 0 127 0" result="hardAlpha"/>
<feOffset/>
<feGaussianBlur stdDeviation="13.1"/>
<feComposite in2="hardAlpha" operator="out"/>
<feColorMatrix type="matrix" values="0 0 0 0 0.301302 0 0 0 0 0.295564 0 0 0 0 0.295564 0 0 0 0.25 0"/>
<feBlend mode="normal" in2="BackgroundImageFix" result="effect1_dropShadow_3282_3773"/>
<feBlend mode="normal" in="SourceGraphic" in2="effect1_dropShadow_3282_3773" result="shape"/>
</filter>
<filter id="filter1_d_3282_3773" x="193.8" y="8.8" width="42.4" height="42.4" filterUnits="userSpaceOnUse" color-interpolation-filters="sRGB">
<feFlood flood-opacity="0" result="BackgroundImageFix"/>
<feColorMatrix in="SourceAlpha" type="matrix" values="0 0 0 0 0 0 0 0 0 0 0 0 0 0 0 0 0 0 127 0" result="hardAlpha"/>
<feOffset/>
<feGaussianBlur stdDeviation="5.6"/>
<feComposite in2="hardAlpha" operator="out"/>
<feColorMatrix type="matrix" values="0 0 0 0 0 0 0 0 0 0 0 0 0 0 0 0 0 0 0.25 0"/>
<feBlend mode="normal" in2="BackgroundImageFix" result="effect1_dropShadow_3282_3773"/>
<feBlend mode="normal" in="SourceGraphic" in2="effect1_dropShadow_3282_3773" result="shape"/>
</filter>
<filter id="filter2_d_3282_3773" x="58.8" y="80.8" width="42.4" height="42.4" filterUnits="userSpaceOnUse" color-interpolation-filters="sRGB">
<feFlood flood-opacity="0" result="BackgroundImageFix"/>
<feColorMatrix in="SourceAlpha" type="matrix" values="0 0 0 0 0 0 0 0 0 0 0 0 0 0 0 0 0 0 127 0" result="hardAlpha"/>
<feOffset/>
<feGaussianBlur stdDeviation="5.6"/>
<feComposite in2="hardAlpha" operator="out"/>
<feColorMatrix type="matrix" values="0 0 0 0 0 0 0 0 0 0 0 0 0 0 0 0 0 0 0.25 0"/>
<feBlend mode="normal" in2="BackgroundImageFix" result="effect1_dropShadow_3282_3773"/>
<feBlend mode="normal" in="SourceGraphic" in2="effect1_dropShadow_3282_3773" result="shape"/>
</filter>
<linearGradient id="paint0_linear_3282_3773" x1="44.9744" y1="-26.0864" x2="153.16" y2="148.358" gradientUnits="userSpaceOnUse">
<stop stop-color="#D9D9D9" stop-opacity="0.2"/>
<stop offset="1" stop-color="#737373"/>
</linearGradient>
<linearGradient id="paint1_linear_3282_3773" x1="136" y1="4" x2="136" y2="136" gradientUnits="userSpaceOnUse">
<stop stop-color="#D9D9D9" stop-opacity="0.2"/>
<stop offset="1" stop-color="#737373"/>
</linearGradient>
<linearGradient id="paint2_linear_3282_3773" x1="93" y1="27" x2="178" y2="128.19" gradientUnits="userSpaceOnUse">
<stop stop-color="#B7B7B7" stop-opacity="0.2"/>
<stop offset="1" stop-color="#515151"/>
</linearGradient>
<linearGradient id="paint3_linear_3282_3773" x1="118.916" y1="50.2695" x2="159.092" y2="91.4016" gradientUnits="userSpaceOnUse">
<stop stop-color="#B7B7B7" stop-opacity="0.2"/>
<stop offset="1" stop-color="#515151"/>
</linearGradient>
<linearGradient id="paint4_linear_3282_3773" x1="127" y1="62" x2="142.574" y2="82.8587" gradientUnits="userSpaceOnUse">
<stop stop-color="#B7B7B7" stop-opacity="0.2"/>
<stop offset="1" stop-color="#515151"/>
</linearGradient>
<linearGradient id="paint5_linear_3282_3773" x1="210" y1="25" x2="220.03" y2="36.7268" gradientUnits="userSpaceOnUse">
<stop stop-color="#B7B7B7"/>
<stop offset="1" stop-color="#515151"/>
</linearGradient>
<linearGradient id="paint6_linear_3282_3773" x1="75" y1="97" x2="83.791" y2="108.628" gradientUnits="userSpaceOnUse">
<stop stop-color="#B7B7B7"/>
<stop offset="1" stop-color="#515151"/>
</linearGradient>
<clipPath id="clip0_3282_3773">
<rect width="272" height="140" fill="white"/>
</clipPath>
</defs>
</svg>
