<svg width="272" height="140" viewBox="0 0 272 140" fill="none" xmlns="http://www.w3.org/2000/svg">
<g clip-path="url(#clip0_3281_3568)">
<line x1="-6" y1="9.75" x2="272" y2="9.75" stroke="#F8F8F8" stroke-width="0.5"/>
<path d="M-6 34.75H188M272 34.75H202" stroke="#F8F8F8" stroke-width="0.5"/>
<line x1="-6" y1="59.75" x2="272" y2="59.75" stroke="#F8F8F8" stroke-width="0.5"/>
<path d="M-6 84.75H73.5M272 84.75H205" stroke="#F8F8F8" stroke-width="0.5"/>
<line x1="38.25" y1="-53" x2="38.25" y2="225" stroke="#F8F8F8" stroke-width="0.5"/>
<line x1="13.25" y1="-53" x2="13.25" y2="225" stroke="#F8F8F8" stroke-width="0.5"/>
<line x1="63.25" y1="-53" x2="63.25" y2="225" stroke="#F8F8F8" stroke-width="0.5"/>
<line x1="113.25" y1="-53" x2="113.25" y2="225" stroke="#F8F8F8" stroke-width="0.5"/>
<line x1="138.25" y1="-53" x2="138.25" y2="225" stroke="#F8F8F8" stroke-width="0.5"/>
<path d="M188.25 -53L188.25 35" stroke="#F8F8F8" stroke-width="0.5"/>
<line x1="163.25" y1="-53" x2="163.25" y2="225" stroke="#F8F8F8" stroke-width="0.5"/>
<line x1="213.25" y1="-53" x2="213.25" y2="225" stroke="#F8F8F8" stroke-width="0.5"/>
<line x1="263.25" y1="-53" x2="263.25" y2="225" stroke="#F8F8F8" stroke-width="0.5"/>
<line x1="238.25" y1="-53" x2="238.25" y2="225" stroke="#F8F8F8" stroke-width="0.5"/>
<line x1="-6" y1="109.75" x2="272" y2="109.75" stroke="#F8F8F8" stroke-width="0.5"/>
<line x1="-6" y1="134.75" x2="272" y2="134.75" stroke="#F8F8F8" stroke-width="0.5"/>
<path d="M75 84.75H201" stroke="#BEBEBE" stroke-width="0.5" stroke-dasharray="1 1"/>
<path d="M203 35H188" stroke="#BEBEBE" stroke-width="0.5" stroke-dasharray="1 1"/>
<path d="M88 -8L88 144" stroke="#BEBEBE" stroke-width="0.5" stroke-dasharray="1 1"/>
<path d="M188 34.5L188 143.999" stroke="#BEBEBE" stroke-width="0.5" stroke-dasharray="1 1"/>
<g filter="url(#filter0_d_3281_3568)">
<rect x="51" y="73" width="23.7072" height="23.7072" rx="4" fill="white"/>
</g>
<path d="M66.5085 79.938L65.2023 79.2617C64.0558 78.668 63.4825 78.3711 62.8658 78.3711C62.2491 78.3711 61.6759 78.668 60.5294 79.2617L59.2232 79.938C58.0649 80.5379 57.3839 80.8905 56.9619 81.3621L62.8658 84.275L68.7698 81.3621C68.3477 80.8905 67.6669 80.5379 66.5085 79.938Z" fill="#1C274C"/>
<path d="M66.5085 79.938L65.2023 79.2617C64.0558 78.668 63.4825 78.3711 62.8658 78.3711C62.2491 78.3711 61.6759 78.668 60.5294 79.2617L59.2232 79.938C58.0649 80.5379 57.3839 80.8905 56.9619 81.3621L62.8658 84.275L68.7698 81.3621C68.3477 80.8905 67.6669 80.5379 66.5085 79.938Z" fill="url(#paint0_linear_3281_3568)"/>
<path d="M69.1994 81.9141L63.4561 84.9629V91.3603C63.9143 91.2392 64.4357 90.9487 65.2609 90.4889L66.5374 89.7777C67.9107 89.0125 68.5974 88.6299 68.9787 87.9425C69.36 87.255 69.36 86.3994 69.36 84.6885V84.6092C69.36 83.3267 69.36 82.5248 69.1994 81.9141Z" fill="#1C274C"/>
<path d="M69.1994 81.9141L63.4561 84.9629V91.3603C63.9143 91.2392 64.4357 90.9487 65.2609 90.4889L66.5374 89.7777C67.9107 89.0125 68.5974 88.6299 68.9787 87.9425C69.36 87.255 69.36 86.3994 69.36 84.6885V84.6092C69.36 83.3267 69.36 82.5248 69.1994 81.9141Z" fill="url(#paint1_linear_3281_3568)"/>
<path d="M62.275 91.3603V84.9629L56.5317 81.9141C56.3711 82.5248 56.3711 83.3267 56.3711 84.6092V84.6885C56.3711 86.3994 56.3711 87.255 56.7524 87.9425C57.1337 88.6299 57.8204 89.0125 59.1937 89.7777L60.4702 90.4889C61.2954 90.9487 61.8168 91.2392 62.275 91.3603Z" fill="#1C274C"/>
<path d="M62.275 91.3603V84.9629L56.5317 81.9141C56.3711 82.5248 56.3711 83.3267 56.3711 84.6092V84.6885C56.3711 86.3994 56.3711 87.255 56.7524 87.9425C57.1337 88.6299 57.8204 89.0125 59.1937 89.7777L60.4702 90.4889C61.2954 90.9487 61.8168 91.2392 62.275 91.3603Z" fill="url(#paint2_linear_3281_3568)"/>
<g filter="url(#filter1_d_3281_3568)">
<rect x="51" y="-20" width="23.7072" height="23.7072" rx="4" fill="white"/>
</g>
<g filter="url(#filter2_d_3281_3568)">
<rect x="126" y="73" width="23.7072" height="23.7072" rx="4" fill="white"/>
</g>
<path d="M133.857 81.3153C133.703 81.4688 133.703 81.7187 133.857 81.8722C134.01 82.0257 134.26 82.0257 134.413 81.8722C134.567 81.7187 134.567 81.4688 134.413 81.3153C134.26 81.1617 134.01 81.1618 133.857 81.3153Z" fill="black"/>
<path d="M133.857 81.3153C133.703 81.4688 133.703 81.7187 133.857 81.8722C134.01 82.0257 134.26 82.0257 134.413 81.8722C134.567 81.7187 134.567 81.4688 134.413 81.3153C134.26 81.1617 134.01 81.1618 133.857 81.3153Z" fill="url(#paint3_linear_3281_3568)"/>
<path d="M132.716 77.7973L130.338 80.1758L130.89 80.7284L133.269 78.3498L132.716 77.7973Z" fill="black"/>
<path d="M132.716 77.7973L130.338 80.1758L130.89 80.7284L133.269 78.3498L132.716 77.7973Z" fill="url(#paint4_linear_3281_3568)"/>
<path d="M133.822 78.762L131.299 81.2847L133.208 85.6708L138.231 80.6481L133.822 78.762ZM134.892 82.3554C134.474 82.7728 133.795 82.7729 133.377 82.3554C132.96 81.9379 132.96 81.2586 133.377 80.841C133.795 80.4236 134.474 80.4235 134.892 80.841C135.309 81.2585 135.309 81.9378 134.892 82.3554Z" fill="black"/>
<path d="M133.822 78.762L131.299 81.2847L133.208 85.6708L138.231 80.6481L133.822 78.762ZM134.892 82.3554C134.474 82.7728 133.795 82.7729 133.377 82.3554C132.96 81.9379 132.96 81.2586 133.377 80.841C133.795 80.4236 134.474 80.4235 134.892 80.841C135.309 81.2585 135.309 81.9378 134.892 82.3554Z" fill="url(#paint5_linear_3281_3568)"/>
<path d="M135.429 86.0385L138.583 82.8845L138.51 81.3238L133.885 85.9492L135.429 86.0385Z" fill="black"/>
<path d="M135.429 86.0385L138.583 82.8845L138.51 81.3238L133.885 85.9492L135.429 86.0385Z" fill="url(#paint6_linear_3281_3568)"/>
<path d="M138.939 83.4913L136.032 86.3984L137.113 87.4796L140.02 84.5725L138.939 83.4913Z" fill="black"/>
<path d="M138.939 83.4913L136.032 86.3984L137.113 87.4796L140.02 84.5725L138.939 83.4913Z" fill="url(#paint7_linear_3281_3568)"/>
<path d="M142.762 90.1236C142.924 90.5235 142.837 90.9842 142.533 91.2889L142.274 91.5478C141.997 91.8245 141.628 91.9732 141.235 91.9673C140.843 91.9614 140.473 91.7943 140.204 91.5091C139.677 90.9496 139.695 90.0419 140.248 89.489L140.452 89.2855C141.055 88.6823 141.074 87.6954 140.471 87.0922L139.468 86.089L138.891 86.6656L139.894 87.6688C140.19 87.9649 140.219 88.4608 139.923 88.757L139.703 88.977C139.281 89.3993 139.039 89.951 139.042 90.5501C139.045 91.1489 139.273 91.7007 139.699 92.119C140.566 92.9696 141.978 92.949 142.849 92.0772L143.085 91.8414C143.728 91.1986 143.808 90.2056 143.296 89.4681L142.776 89.9883C142.738 90.026 142.747 90.0855 142.762 90.1236Z" fill="black"/>
<path d="M142.762 90.1236C142.924 90.5235 142.837 90.9842 142.533 91.2889L142.274 91.5478C141.997 91.8245 141.628 91.9732 141.235 91.9673C140.843 91.9614 140.473 91.7943 140.204 91.5091C139.677 90.9496 139.695 90.0419 140.248 89.489L140.452 89.2855C141.055 88.6823 141.074 87.6954 140.471 87.0922L139.468 86.089L138.891 86.6656L139.894 87.6688C140.19 87.9649 140.219 88.4608 139.923 88.757L139.703 88.977C139.281 89.3993 139.039 89.951 139.042 90.5501C139.045 91.1489 139.273 91.7007 139.699 92.119C140.566 92.9696 141.978 92.949 142.849 92.0772L143.085 91.8414C143.728 91.1986 143.808 90.2056 143.296 89.4681L142.776 89.9883C142.738 90.026 142.747 90.0855 142.762 90.1236Z" fill="url(#paint8_linear_3281_3568)"/>
<g filter="url(#filter3_d_3281_3568)">
<rect x="201" y="73" width="23.7072" height="23.7072" rx="4" fill="white"/>
</g>
<path d="M212.087 84.7368C212.106 84.7408 212.127 84.7428 212.146 84.7428C212.27 84.7428 212.383 84.6563 212.41 84.5299C212.441 84.3846 212.345 84.2414 212.2 84.2103L211.014 83.957V84.5077L212.087 84.7368Z" fill="black"/>
<path d="M212.087 84.7368C212.106 84.7408 212.127 84.7428 212.146 84.7428C212.27 84.7428 212.383 84.6563 212.41 84.5299C212.441 84.3846 212.345 84.2414 212.2 84.2103L211.014 83.957V84.5077L212.087 84.7368Z" fill="url(#paint9_linear_3281_3568)"/>
<path d="M208.257 83.3654C208.112 83.3343 207.966 83.4269 207.935 83.5722C207.903 83.7176 208 83.8607 208.146 83.8919L209.311 84.1407V83.59L208.257 83.3654Z" fill="black"/>
<path d="M208.257 83.3654C208.112 83.3343 207.966 83.4269 207.935 83.5722C207.903 83.7176 208 83.8607 208.146 83.8919L209.311 84.1407V83.59L208.257 83.3654Z" fill="url(#paint10_linear_3281_3568)"/>
<path d="M208.257 85.0607C208.112 85.0296 207.966 85.1222 207.935 85.2675C207.903 85.4129 208 85.556 208.146 85.5872L209.311 85.836V85.2853L208.257 85.0607Z" fill="black"/>
<path d="M208.257 85.0607C208.112 85.0296 207.966 85.1222 207.935 85.2675C207.903 85.4129 208 85.556 208.146 85.5872L209.311 85.836V85.2853L208.257 85.0607Z" fill="url(#paint11_linear_3281_3568)"/>
<path d="M212.087 86.4321C212.106 86.4362 212.127 86.4381 212.146 86.4381C212.27 86.4381 212.383 86.3516 212.41 86.2253C212.441 86.0799 212.345 85.9368 212.2 85.9056L211.014 85.6523V86.203L212.087 86.4321Z" fill="black"/>
<path d="M212.087 86.4321C212.106 86.4362 212.127 86.4381 212.146 86.4381C212.27 86.4381 212.383 86.3516 212.41 86.2253C212.441 86.0799 212.345 85.9368 212.2 85.9056L211.014 85.6523V86.203L212.087 86.4321Z" fill="url(#paint12_linear_3281_3568)"/>
<path d="M212.087 88.1274C212.106 88.1315 212.127 88.1334 212.146 88.1334C212.27 88.1334 212.383 88.0469 212.41 87.9206C212.441 87.7752 212.345 87.632 212.2 87.6009L211.014 87.3477V87.8983L212.087 88.1274Z" fill="black"/>
<path d="M212.087 88.1274C212.106 88.1315 212.127 88.1334 212.146 88.1334C212.27 88.1334 212.383 88.0469 212.41 87.9206C212.441 87.7752 212.345 87.632 212.2 87.6009L211.014 87.3477V87.8983L212.087 88.1274Z" fill="url(#paint13_linear_3281_3568)"/>
<path d="M208.257 86.7521C208.112 86.721 207.966 86.8136 207.935 86.959C207.903 87.1043 208 87.2475 208.146 87.2786L209.311 87.5274V86.9767L208.257 86.7521Z" fill="black"/>
<path d="M208.257 86.7521C208.112 86.721 207.966 86.8136 207.935 86.959C207.903 87.1043 208 87.2475 208.146 87.2786L209.311 87.5274V86.9767L208.257 86.7521Z" fill="url(#paint14_linear_3281_3568)"/>
<path d="M208.257 88.4474C208.112 88.4163 207.966 88.5089 207.935 88.6543C207.903 88.7997 208 88.9428 208.146 88.9739L209.311 89.2227V88.672L208.257 88.4474Z" fill="black"/>
<path d="M208.257 88.4474C208.112 88.4163 207.966 88.5089 207.935 88.6543C207.903 88.7997 208 88.9428 208.146 88.9739L209.311 89.2227V88.672L208.257 88.4474Z" fill="url(#paint15_linear_3281_3568)"/>
<path d="M212.087 89.8188C212.106 89.8229 212.127 89.8249 212.146 89.8249C212.27 89.8249 212.383 89.7384 212.41 89.612C212.441 89.4666 212.345 89.3235 212.2 89.2923L211.014 89.0391V89.5897L212.087 89.8188Z" fill="black"/>
<path d="M212.087 89.8188C212.106 89.8229 212.127 89.8249 212.146 89.8249C212.27 89.8249 212.383 89.7384 212.41 89.612C212.441 89.4666 212.345 89.3235 212.2 89.2923L211.014 89.0391V89.5897L212.087 89.8188Z" fill="url(#paint16_linear_3281_3568)"/>
<path d="M209.312 88.6708L211.014 89.04V87.8966L209.312 87.5273V88.6708Z" fill="black"/>
<path d="M209.312 88.6708L211.014 89.04V87.8966L209.312 87.5273V88.6708Z" fill="url(#paint17_linear_3281_3568)"/>
<path d="M209.312 90.6965L210.163 91.9867L211.014 90.6965V89.588L209.312 89.2188V90.6965Z" fill="black"/>
<path d="M209.312 90.6965L210.163 91.9867L211.014 90.6965V89.588L209.312 89.2188V90.6965Z" fill="url(#paint18_linear_3281_3568)"/>
<path d="M209.312 84.1367V85.2802L211.014 85.6493V84.5059L209.312 84.1367Z" fill="black"/>
<path d="M209.312 84.1367V85.2802L211.014 85.6493V84.5059L209.312 84.1367Z" fill="url(#paint19_linear_3281_3568)"/>
<path d="M209.312 86.9754L211.014 87.3446V86.2012L209.312 85.832V86.9754Z" fill="black"/>
<path d="M209.312 86.9754L211.014 87.3446V86.2012L209.312 85.832V86.9754Z" fill="url(#paint20_linear_3281_3568)"/>
<path d="M211.591 80.2344H210.903L210.695 80.6517C210.649 80.7429 210.556 80.8018 210.454 80.8018H209.89C209.788 80.8018 209.694 80.7428 209.649 80.6516L209.441 80.2344H208.753C208.283 80.2344 207.906 80.6149 207.906 81.0853V81.9368H209.042H211.301H212.446V81.0853C212.446 80.6149 212.061 80.2344 211.591 80.2344Z" fill="black"/>
<path d="M211.591 80.2344H210.903L210.695 80.6517C210.649 80.7429 210.556 80.8018 210.454 80.8018H209.89C209.788 80.8018 209.694 80.7428 209.649 80.6516L209.441 80.2344H208.753C208.283 80.2344 207.906 80.6149 207.906 81.0853V81.9368H209.042H211.301H212.446V81.0853C212.446 80.6149 212.061 80.2344 211.591 80.2344Z" fill="url(#paint21_linear_3281_3568)"/>
<path d="M211.014 82.4766H209.312V83.5871L211.014 83.9563V82.4766Z" fill="black"/>
<path d="M211.014 82.4766H209.312V83.5871L211.014 83.9563V82.4766Z" fill="url(#paint22_linear_3281_3568)"/>
<path d="M215.823 87.8793H217.526V86.7755L215.823 86.4062V87.8793Z" fill="black"/>
<path d="M215.823 87.8793H217.526V86.7755L215.823 86.4062V87.8793Z" fill="url(#paint23_linear_3281_3568)"/>
<path d="M217.526 83.3887L215.823 83.0195V84.163L217.526 84.5322V83.3887Z" fill="black"/>
<path d="M217.526 83.3887L215.823 83.0195V84.163L217.526 84.5322V83.3887Z" fill="url(#paint24_linear_3281_3568)"/>
<path d="M217.526 79.6613L216.674 78.3711L215.823 79.6613V80.7765L217.526 81.1457V79.6613Z" fill="black"/>
<path d="M217.526 79.6613L216.674 78.3711L215.823 79.6613V80.7765L217.526 81.1457V79.6613Z" fill="url(#paint25_linear_3281_3568)"/>
<path d="M217.526 86.2275V85.0841L215.823 84.7148V85.8582L217.526 86.2275Z" fill="black"/>
<path d="M217.526 86.2275V85.0841L215.823 84.7148V85.8582L217.526 86.2275Z" fill="url(#paint26_linear_3281_3568)"/>
<path d="M217.526 81.6973L215.823 81.3281V82.4716L217.526 82.8408V81.6973Z" fill="black"/>
<path d="M217.526 81.6973L215.823 81.3281V82.4716L217.526 82.8408V81.6973Z" fill="url(#paint27_linear_3281_3568)"/>
<path d="M217.795 88.4219H215.536H214.392V89.2801C214.392 89.7505 214.777 90.1243 215.247 90.1243H215.935L216.143 89.707C216.188 89.6158 216.281 89.5568 216.383 89.5568H216.948C217.05 89.5568 217.143 89.6158 217.189 89.707L217.397 90.1243H218.085C218.555 90.1243 218.931 89.7505 218.931 89.2801V88.4219H217.795Z" fill="black"/>
<path d="M217.795 88.4219H215.536H214.392V89.2801C214.392 89.7505 214.777 90.1243 215.247 90.1243H215.935L216.143 89.707C216.188 89.6158 216.281 89.5568 216.383 89.5568H216.948C217.05 89.5568 217.143 89.6158 217.189 89.707L217.397 90.1243H218.085C218.555 90.1243 218.931 89.7505 218.931 89.2801V88.4219H217.795Z" fill="url(#paint28_linear_3281_3568)"/>
<path d="M218.58 87.0018C218.599 87.0059 218.621 87.0079 218.64 87.0079C218.764 87.0079 218.877 86.9214 218.904 86.795C218.935 86.6496 218.838 86.5065 218.692 86.4753L217.526 86.2266V86.7772L218.58 87.0018Z" fill="black"/>
<path d="M218.58 87.0018C218.599 87.0059 218.621 87.0079 218.64 87.0079C218.764 87.0079 218.877 86.9214 218.904 86.795C218.935 86.6496 218.838 86.5065 218.692 86.4753L217.526 86.2266V86.7772L218.58 87.0018Z" fill="url(#paint29_linear_3281_3568)"/>
<path d="M214.751 85.631C214.605 85.5999 214.46 85.6925 214.429 85.8379C214.398 85.9832 214.494 86.1264 214.639 86.1575L215.824 86.4108V85.8601L214.751 85.631Z" fill="black"/>
<path d="M214.751 85.631C214.605 85.5999 214.46 85.6925 214.429 85.8379C214.398 85.9832 214.494 86.1264 214.639 86.1575L215.824 86.4108V85.8601L214.751 85.631Z" fill="url(#paint30_linear_3281_3568)"/>
<path d="M214.751 83.9357C214.605 83.9045 214.46 83.9972 214.429 84.1426C214.398 84.2879 214.494 84.4311 214.639 84.4622L215.824 84.7155V84.1648L214.751 83.9357Z" fill="black"/>
<path d="M214.751 83.9357C214.605 83.9045 214.46 83.9972 214.429 84.1426C214.398 84.2879 214.494 84.4311 214.639 84.4622L215.824 84.7155V84.1648L214.751 83.9357Z" fill="url(#paint31_linear_3281_3568)"/>
<path d="M218.58 85.3104C218.599 85.3145 218.621 85.3164 218.64 85.3164C218.764 85.3164 218.877 85.2299 218.904 85.1035C218.935 84.9582 218.838 84.8151 218.692 84.7839L217.526 84.5352V85.0858L218.58 85.3104Z" fill="black"/>
<path d="M218.58 85.3104C218.599 85.3145 218.621 85.3164 218.64 85.3164C218.764 85.3164 218.877 85.2299 218.904 85.1035C218.935 84.9582 218.838 84.8151 218.692 84.7839L217.526 84.5352V85.0858L218.58 85.3104Z" fill="url(#paint32_linear_3281_3568)"/>
<path d="M218.58 83.6151C218.599 83.6191 218.621 83.6211 218.64 83.6211C218.764 83.6211 218.877 83.5346 218.904 83.4082C218.935 83.2629 218.838 83.1197 218.692 83.0886L217.526 82.8398V83.3905L218.58 83.6151Z" fill="black"/>
<path d="M218.58 83.6151C218.599 83.6191 218.621 83.6211 218.64 83.6211C218.764 83.6211 218.877 83.5346 218.904 83.4082C218.935 83.2629 218.838 83.1197 218.692 83.0886L217.526 82.8398V83.3905L218.58 83.6151Z" fill="url(#paint33_linear_3281_3568)"/>
<path d="M214.751 82.2404C214.605 82.2092 214.46 82.3019 214.429 82.4472C214.398 82.5926 214.494 82.7357 214.639 82.7669L215.824 83.0202V82.4695L214.751 82.2404Z" fill="black"/>
<path d="M214.751 82.2404C214.605 82.2092 214.46 82.3019 214.429 82.4472C214.398 82.5926 214.494 82.7357 214.639 82.7669L215.824 83.0202V82.4695L214.751 82.2404Z" fill="url(#paint34_linear_3281_3568)"/>
<path d="M218.58 81.9198C218.599 81.9238 218.621 81.9258 218.64 81.9258C218.764 81.9258 218.877 81.8393 218.904 81.7129C218.935 81.5675 218.838 81.4244 218.692 81.3933L217.526 81.1445V81.6952L218.58 81.9198Z" fill="black"/>
<path d="M218.58 81.9198C218.599 81.9238 218.621 81.9258 218.64 81.9258C218.764 81.9258 218.877 81.8393 218.904 81.7129C218.935 81.5675 218.838 81.4244 218.692 81.3933L217.526 81.1445V81.6952L218.58 81.9198Z" fill="url(#paint35_linear_3281_3568)"/>
<path d="M214.751 80.549C214.605 80.5178 214.46 80.6105 214.429 80.7558C214.398 80.9012 214.494 81.0443 214.639 81.0755L215.824 81.3287V80.7781L214.751 80.549Z" fill="black"/>
<path d="M214.751 80.549C214.605 80.5178 214.46 80.6105 214.429 80.7558C214.398 80.9012 214.494 81.0443 214.639 81.0755L215.824 81.3287V80.7781L214.751 80.549Z" fill="url(#paint36_linear_3281_3568)"/>
<g filter="url(#filter4_d_3281_3568)">
<rect x="201" y="23" width="23.7072" height="23.7072" rx="4" fill="white"/>
</g>
<path d="M214.454 29.1859C214.454 28.7356 214.079 28.3711 213.629 28.3711H212.453C212.003 28.3711 211.629 28.7356 211.629 29.1859V29.2442H214.454V29.1859Z" fill="black"/>
<path d="M214.454 29.1859C214.454 28.7356 214.079 28.3711 213.629 28.3711H212.453C212.003 28.3711 211.629 28.7356 211.629 29.1859V29.2442H214.454V29.1859Z" fill="url(#paint37_linear_3281_3568)"/>
<path d="M207.906 32.9173V35.2C207.906 35.5739 208.206 35.8909 208.58 35.8909H208.779V32.2188H208.58C208.206 32.2188 207.906 32.5433 207.906 32.9173Z" fill="black"/>
<path d="M207.906 32.9173V35.2C207.906 35.5739 208.206 35.8909 208.58 35.8909H208.779V32.2188H208.58C208.206 32.2188 207.906 32.5433 207.906 32.9173Z" fill="url(#paint38_linear_3281_3568)"/>
<path d="M215.431 31.4258H210.654V33.6599H215.431V31.4258Z" fill="black"/>
<path d="M215.431 31.4258H210.654V33.6599H215.431V31.4258Z" fill="url(#paint39_linear_3281_3568)"/>
<path d="M217.504 32.2188H217.305V35.8909H217.504C217.878 35.8909 218.178 35.5739 218.178 35.2V32.9173C218.178 32.5433 217.878 32.2188 217.504 32.2188Z" fill="black"/>
<path d="M217.504 32.2188H217.305V35.8909H217.504C217.878 35.8909 218.178 35.5739 218.178 35.2V32.9173C218.178 32.5433 217.878 32.2188 217.504 32.2188Z" fill="url(#paint40_linear_3281_3568)"/>
<path d="M215.581 29.7578H214.702H211.382H210.503C209.832 29.7578 209.293 30.2992 209.293 30.9707V31.9875V36.1383V37.6602C209.293 39.7315 210.971 41.4167 213.042 41.4167C215.113 41.4167 216.791 39.7315 216.791 37.6602V36.1383V31.9875V30.9707C216.791 30.2992 216.252 29.7578 215.581 29.7578ZM211.501 38.9096C211.501 39.0509 211.386 39.1654 211.245 39.1654C211.103 39.1654 210.988 39.0509 210.988 38.9096V35.5838C210.988 35.4425 211.103 35.3279 211.245 35.3279C211.386 35.3279 211.501 35.4425 211.501 35.5838V38.9096ZM213.299 38.9096C213.299 39.0509 213.183 39.1654 213.042 39.1654C212.901 39.1654 212.785 39.0509 212.785 38.9096V35.5838C212.785 35.4425 212.901 35.3279 213.042 35.3279C213.183 35.3279 213.299 35.4425 213.299 35.5838V38.9096ZM215.096 38.9096C215.096 39.0509 214.981 39.1654 214.84 39.1654C214.698 39.1654 214.583 39.0509 214.583 38.9096V35.5838C214.583 35.4425 214.698 35.3279 214.84 35.3279C214.981 35.3279 215.096 35.4425 215.096 35.5838V38.9096ZM215.918 33.9445C215.918 34.0857 215.804 34.2003 215.662 34.2003H210.396C210.255 34.2003 210.14 34.0858 210.14 33.9445V31.1692C210.14 31.0279 210.255 30.9134 210.396 30.9134H215.662C215.804 30.9134 215.918 31.0279 215.918 31.1692V33.9445H215.918Z" fill="black"/>
<path d="M215.581 29.7578H214.702H211.382H210.503C209.832 29.7578 209.293 30.2992 209.293 30.9707V31.9875V36.1383V37.6602C209.293 39.7315 210.971 41.4167 213.042 41.4167C215.113 41.4167 216.791 39.7315 216.791 37.6602V36.1383V31.9875V30.9707C216.791 30.2992 216.252 29.7578 215.581 29.7578ZM211.501 38.9096C211.501 39.0509 211.386 39.1654 211.245 39.1654C211.103 39.1654 210.988 39.0509 210.988 38.9096V35.5838C210.988 35.4425 211.103 35.3279 211.245 35.3279C211.386 35.3279 211.501 35.4425 211.501 35.5838V38.9096ZM213.299 38.9096C213.299 39.0509 213.183 39.1654 213.042 39.1654C212.901 39.1654 212.785 39.0509 212.785 38.9096V35.5838C212.785 35.4425 212.901 35.3279 213.042 35.3279C213.183 35.3279 213.299 35.4425 213.299 35.5838V38.9096ZM215.096 38.9096C215.096 39.0509 214.981 39.1654 214.84 39.1654C214.698 39.1654 214.583 39.0509 214.583 38.9096V35.5838C214.583 35.4425 214.698 35.3279 214.84 35.3279C214.981 35.3279 215.096 35.4425 215.096 35.5838V38.9096ZM215.918 33.9445C215.918 34.0857 215.804 34.2003 215.662 34.2003H210.396C210.255 34.2003 210.14 34.0858 210.14 33.9445V31.1692C210.14 31.0279 210.255 30.9134 210.396 30.9134H215.662C215.804 30.9134 215.918 31.0279 215.918 31.1692V33.9445H215.918Z" fill="url(#paint41_linear_3281_3568)"/>
<path d="M90 85C89.7374 85 89.4773 84.9483 89.2346 84.8478C88.992 84.7472 88.7715 84.5999 88.5858 84.4142C88.4001 84.2285 88.2528 84.008 88.1522 83.7654C88.0517 83.5227 88 83.2626 88 83L88.6102 83C88.6102 83.1825 88.6462 83.3632 88.716 83.5318C88.7859 83.7005 88.8882 83.8537 89.0173 83.9827C89.1463 84.1118 89.2995 84.2141 89.4682 84.284C89.6368 84.3538 89.8175 84.3898 90 84.3898L90 85Z" fill="#979797"/>
<path d="M90 85C89.7374 85 89.4773 85.0517 89.2346 85.1522C88.992 85.2528 88.7715 85.4001 88.5858 85.5858C88.4001 85.7715 88.2528 85.992 88.1522 86.2346C88.0517 86.4773 88 86.7374 88 87L88.6102 87C88.6102 86.8175 88.6462 86.6368 88.716 86.4682C88.7859 86.2995 88.8882 86.1463 89.0173 86.0173C89.1463 85.8882 89.2995 85.7859 89.4682 85.716C89.6368 85.6462 89.8175 85.6102 90 85.6102L90 85Z" fill="#979797"/>
<path d="M186 85C186.263 85 186.523 84.9483 186.765 84.8478C187.008 84.7472 187.228 84.5999 187.414 84.4142C187.6 84.2285 187.747 84.008 187.848 83.7654C187.948 83.5227 188 83.2626 188 83L187.39 83C187.39 83.1825 187.354 83.3632 187.284 83.5318C187.214 83.7005 187.112 83.8537 186.983 83.9827C186.854 84.1118 186.7 84.2141 186.532 84.284C186.363 84.3538 186.183 84.3898 186 84.3898L186 85Z" fill="#979797"/>
<path d="M190 35C189.737 35 189.477 35.0517 189.235 35.1522C188.992 35.2528 188.772 35.4001 188.586 35.5858C188.4 35.7715 188.253 35.992 188.152 36.2346C188.052 36.4773 188 36.7374 188 37L188.61 37C188.61 36.8175 188.646 36.6368 188.716 36.4682C188.786 36.2995 188.888 36.1463 189.017 36.0173C189.146 35.8882 189.3 35.7859 189.468 35.716C189.637 35.6462 189.817 35.6102 190 35.6102L190 35Z" fill="#979797"/>
<path d="M186 85C186.263 85 186.523 85.0517 186.765 85.1522C187.008 85.2528 187.228 85.4001 187.414 85.5858C187.6 85.7715 187.747 85.992 187.848 86.2346C187.948 86.4773 188 86.7374 188 87L187.39 87C187.39 86.8175 187.354 86.6368 187.284 86.4682C187.214 86.2995 187.112 86.1463 186.983 86.0173C186.854 85.8882 186.7 85.7859 186.532 85.716C186.363 85.6462 186.183 85.6102 186 85.6102L186 85Z" fill="#979797"/>
</g>
<defs>
<filter id="filter0_d_3281_3568" x="39.8" y="61.8" width="46.107" height="46.107" filterUnits="userSpaceOnUse" color-interpolation-filters="sRGB">
<feFlood flood-opacity="0" result="BackgroundImageFix"/>
<feColorMatrix in="SourceAlpha" type="matrix" values="0 0 0 0 0 0 0 0 0 0 0 0 0 0 0 0 0 0 127 0" result="hardAlpha"/>
<feOffset/>
<feGaussianBlur stdDeviation="5.6"/>
<feComposite in2="hardAlpha" operator="out"/>
<feColorMatrix type="matrix" values="0 0 0 0 0 0 0 0 0 0 0 0 0 0 0 0 0 0 0.25 0"/>
<feBlend mode="normal" in2="BackgroundImageFix" result="effect1_dropShadow_3281_3568"/>
<feBlend mode="normal" in="SourceGraphic" in2="effect1_dropShadow_3281_3568" result="shape"/>
</filter>
<filter id="filter1_d_3281_3568" x="39.8" y="-31.2" width="46.107" height="46.107" filterUnits="userSpaceOnUse" color-interpolation-filters="sRGB">
<feFlood flood-opacity="0" result="BackgroundImageFix"/>
<feColorMatrix in="SourceAlpha" type="matrix" values="0 0 0 0 0 0 0 0 0 0 0 0 0 0 0 0 0 0 127 0" result="hardAlpha"/>
<feOffset/>
<feGaussianBlur stdDeviation="5.6"/>
<feComposite in2="hardAlpha" operator="out"/>
<feColorMatrix type="matrix" values="0 0 0 0 0 0 0 0 0 0 0 0 0 0 0 0 0 0 0.25 0"/>
<feBlend mode="normal" in2="BackgroundImageFix" result="effect1_dropShadow_3281_3568"/>
<feBlend mode="normal" in="SourceGraphic" in2="effect1_dropShadow_3281_3568" result="shape"/>
</filter>
<filter id="filter2_d_3281_3568" x="114.8" y="61.8" width="46.107" height="46.107" filterUnits="userSpaceOnUse" color-interpolation-filters="sRGB">
<feFlood flood-opacity="0" result="BackgroundImageFix"/>
<feColorMatrix in="SourceAlpha" type="matrix" values="0 0 0 0 0 0 0 0 0 0 0 0 0 0 0 0 0 0 127 0" result="hardAlpha"/>
<feOffset/>
<feGaussianBlur stdDeviation="5.6"/>
<feComposite in2="hardAlpha" operator="out"/>
<feColorMatrix type="matrix" values="0 0 0 0 0 0 0 0 0 0 0 0 0 0 0 0 0 0 0.25 0"/>
<feBlend mode="normal" in2="BackgroundImageFix" result="effect1_dropShadow_3281_3568"/>
<feBlend mode="normal" in="SourceGraphic" in2="effect1_dropShadow_3281_3568" result="shape"/>
</filter>
<filter id="filter3_d_3281_3568" x="189.8" y="61.8" width="46.107" height="46.107" filterUnits="userSpaceOnUse" color-interpolation-filters="sRGB">
<feFlood flood-opacity="0" result="BackgroundImageFix"/>
<feColorMatrix in="SourceAlpha" type="matrix" values="0 0 0 0 0 0 0 0 0 0 0 0 0 0 0 0 0 0 127 0" result="hardAlpha"/>
<feOffset/>
<feGaussianBlur stdDeviation="5.6"/>
<feComposite in2="hardAlpha" operator="out"/>
<feColorMatrix type="matrix" values="0 0 0 0 0 0 0 0 0 0 0 0 0 0 0 0 0 0 0.25 0"/>
<feBlend mode="normal" in2="BackgroundImageFix" result="effect1_dropShadow_3281_3568"/>
<feBlend mode="normal" in="SourceGraphic" in2="effect1_dropShadow_3281_3568" result="shape"/>
</filter>
<filter id="filter4_d_3281_3568" x="189.8" y="11.8" width="46.107" height="46.107" filterUnits="userSpaceOnUse" color-interpolation-filters="sRGB">
<feFlood flood-opacity="0" result="BackgroundImageFix"/>
<feColorMatrix in="SourceAlpha" type="matrix" values="0 0 0 0 0 0 0 0 0 0 0 0 0 0 0 0 0 0 127 0" result="hardAlpha"/>
<feOffset/>
<feGaussianBlur stdDeviation="5.6"/>
<feComposite in2="hardAlpha" operator="out"/>
<feColorMatrix type="matrix" values="0 0 0 0 0 0 0 0 0 0 0 0 0 0 0 0 0 0 0.25 0"/>
<feBlend mode="normal" in2="BackgroundImageFix" result="effect1_dropShadow_3281_3568"/>
<feBlend mode="normal" in="SourceGraphic" in2="effect1_dropShadow_3281_3568" result="shape"/>
</filter>
<linearGradient id="paint0_linear_3281_3568" x1="56.9619" y1="78.3711" x2="61.2418" y2="88.5613" gradientUnits="userSpaceOnUse">
<stop stop-color="#B7B7B7"/>
<stop offset="1" stop-color="#515151"/>
</linearGradient>
<linearGradient id="paint1_linear_3281_3568" x1="63.4561" y1="81.9141" x2="72.6419" y2="88.7488" gradientUnits="userSpaceOnUse">
<stop stop-color="#B7B7B7"/>
<stop offset="1" stop-color="#515151"/>
</linearGradient>
<linearGradient id="paint2_linear_3281_3568" x1="56.3711" y1="81.9141" x2="65.5569" y2="88.7488" gradientUnits="userSpaceOnUse">
<stop stop-color="#B7B7B7"/>
<stop offset="1" stop-color="#515151"/>
</linearGradient>
<linearGradient id="paint3_linear_3281_3568" x1="133.578" y1="81.5938" x2="134.798" y2="81.6998" gradientUnits="userSpaceOnUse">
<stop stop-color="#B7B7B7"/>
<stop offset="1" stop-color="#515151"/>
</linearGradient>
<linearGradient id="paint4_linear_3281_3568" x1="130.338" y1="80.1758" x2="131.63" y2="81.0457" gradientUnits="userSpaceOnUse">
<stop stop-color="#B7B7B7"/>
<stop offset="1" stop-color="#515151"/>
</linearGradient>
<linearGradient id="paint5_linear_3281_3568" x1="130.061" y1="82.5234" x2="137.699" y2="84.8936" gradientUnits="userSpaceOnUse">
<stop stop-color="#B7B7B7"/>
<stop offset="1" stop-color="#515151"/>
</linearGradient>
<linearGradient id="paint6_linear_3281_3568" x1="133.885" y1="85.9492" x2="135.748" y2="87.3314" gradientUnits="userSpaceOnUse">
<stop stop-color="#B7B7B7"/>
<stop offset="1" stop-color="#515151"/>
</linearGradient>
<linearGradient id="paint7_linear_3281_3568" x1="136.032" y1="86.3984" x2="138.657" y2="87.7737" gradientUnits="userSpaceOnUse">
<stop stop-color="#B7B7B7"/>
<stop offset="1" stop-color="#515151"/>
</linearGradient>
<linearGradient id="paint8_linear_3281_3568" x1="136.568" y1="88.9883" x2="144.878" y2="88.0332" gradientUnits="userSpaceOnUse">
<stop stop-color="#B7B7B7"/>
<stop offset="1" stop-color="#515151"/>
</linearGradient>
<linearGradient id="paint9_linear_3281_3568" x1="211.014" y1="83.957" x2="211.628" y2="85.2632" gradientUnits="userSpaceOnUse">
<stop stop-color="#B7B7B7"/>
<stop offset="1" stop-color="#515151"/>
</linearGradient>
<linearGradient id="paint10_linear_3281_3568" x1="207.929" y1="83.3594" x2="208.543" y2="84.6539" gradientUnits="userSpaceOnUse">
<stop stop-color="#B7B7B7"/>
<stop offset="1" stop-color="#515151"/>
</linearGradient>
<linearGradient id="paint11_linear_3281_3568" x1="207.929" y1="85.0547" x2="208.543" y2="86.3492" gradientUnits="userSpaceOnUse">
<stop stop-color="#B7B7B7"/>
<stop offset="1" stop-color="#515151"/>
</linearGradient>
<linearGradient id="paint12_linear_3281_3568" x1="211.014" y1="85.6523" x2="211.628" y2="86.9585" gradientUnits="userSpaceOnUse">
<stop stop-color="#B7B7B7"/>
<stop offset="1" stop-color="#515151"/>
</linearGradient>
<linearGradient id="paint13_linear_3281_3568" x1="211.014" y1="87.3477" x2="211.628" y2="88.6538" gradientUnits="userSpaceOnUse">
<stop stop-color="#B7B7B7"/>
<stop offset="1" stop-color="#515151"/>
</linearGradient>
<linearGradient id="paint14_linear_3281_3568" x1="207.929" y1="86.7461" x2="208.543" y2="88.0406" gradientUnits="userSpaceOnUse">
<stop stop-color="#B7B7B7"/>
<stop offset="1" stop-color="#515151"/>
</linearGradient>
<linearGradient id="paint15_linear_3281_3568" x1="207.929" y1="88.4414" x2="208.543" y2="89.7359" gradientUnits="userSpaceOnUse">
<stop stop-color="#B7B7B7"/>
<stop offset="1" stop-color="#515151"/>
</linearGradient>
<linearGradient id="paint16_linear_3281_3568" x1="211.014" y1="89.0391" x2="211.628" y2="90.3452" gradientUnits="userSpaceOnUse">
<stop stop-color="#B7B7B7"/>
<stop offset="1" stop-color="#515151"/>
</linearGradient>
<linearGradient id="paint17_linear_3281_3568" x1="209.312" y1="87.5273" x2="210.784" y2="89.4999" gradientUnits="userSpaceOnUse">
<stop stop-color="#B7B7B7"/>
<stop offset="1" stop-color="#515151"/>
</linearGradient>
<linearGradient id="paint18_linear_3281_3568" x1="209.312" y1="89.2187" x2="211.99" y2="91.1803" gradientUnits="userSpaceOnUse">
<stop stop-color="#B7B7B7"/>
<stop offset="1" stop-color="#515151"/>
</linearGradient>
<linearGradient id="paint19_linear_3281_3568" x1="209.312" y1="84.1367" x2="210.784" y2="86.1093" gradientUnits="userSpaceOnUse">
<stop stop-color="#B7B7B7"/>
<stop offset="1" stop-color="#515151"/>
</linearGradient>
<linearGradient id="paint20_linear_3281_3568" x1="209.312" y1="85.832" x2="210.784" y2="87.8046" gradientUnits="userSpaceOnUse">
<stop stop-color="#B7B7B7"/>
<stop offset="1" stop-color="#515151"/>
</linearGradient>
<linearGradient id="paint21_linear_3281_3568" x1="207.906" y1="80.2344" x2="208.897" y2="83.3791" gradientUnits="userSpaceOnUse">
<stop stop-color="#B7B7B7"/>
<stop offset="1" stop-color="#515151"/>
</linearGradient>
<linearGradient id="paint22_linear_3281_3568" x1="209.312" y1="82.4766" x2="210.742" y2="84.4364" gradientUnits="userSpaceOnUse">
<stop stop-color="#B7B7B7"/>
<stop offset="1" stop-color="#515151"/>
</linearGradient>
<linearGradient id="paint23_linear_3281_3568" x1="215.823" y1="86.4062" x2="217.246" y2="88.3634" gradientUnits="userSpaceOnUse">
<stop stop-color="#B7B7B7"/>
<stop offset="1" stop-color="#515151"/>
</linearGradient>
<linearGradient id="paint24_linear_3281_3568" x1="215.823" y1="83.0195" x2="217.295" y2="84.9921" gradientUnits="userSpaceOnUse">
<stop stop-color="#B7B7B7"/>
<stop offset="1" stop-color="#515151"/>
</linearGradient>
<linearGradient id="paint25_linear_3281_3568" x1="215.823" y1="78.3711" x2="218.507" y2="80.3312" gradientUnits="userSpaceOnUse">
<stop stop-color="#B7B7B7"/>
<stop offset="1" stop-color="#515151"/>
</linearGradient>
<linearGradient id="paint26_linear_3281_3568" x1="215.823" y1="84.7148" x2="217.295" y2="86.6874" gradientUnits="userSpaceOnUse">
<stop stop-color="#B7B7B7"/>
<stop offset="1" stop-color="#515151"/>
</linearGradient>
<linearGradient id="paint27_linear_3281_3568" x1="215.823" y1="81.3281" x2="217.295" y2="83.3007" gradientUnits="userSpaceOnUse">
<stop stop-color="#B7B7B7"/>
<stop offset="1" stop-color="#515151"/>
</linearGradient>
<linearGradient id="paint28_linear_3281_3568" x1="214.392" y1="88.4219" x2="215.382" y2="91.5666" gradientUnits="userSpaceOnUse">
<stop stop-color="#B7B7B7"/>
<stop offset="1" stop-color="#515151"/>
</linearGradient>
<linearGradient id="paint29_linear_3281_3568" x1="217.526" y1="86.2266" x2="218.141" y2="87.5216" gradientUnits="userSpaceOnUse">
<stop stop-color="#B7B7B7"/>
<stop offset="1" stop-color="#515151"/>
</linearGradient>
<linearGradient id="paint30_linear_3281_3568" x1="214.423" y1="85.625" x2="215.038" y2="86.9308" gradientUnits="userSpaceOnUse">
<stop stop-color="#B7B7B7"/>
<stop offset="1" stop-color="#515151"/>
</linearGradient>
<linearGradient id="paint31_linear_3281_3568" x1="214.423" y1="83.9297" x2="215.038" y2="85.2355" gradientUnits="userSpaceOnUse">
<stop stop-color="#B7B7B7"/>
<stop offset="1" stop-color="#515151"/>
</linearGradient>
<linearGradient id="paint32_linear_3281_3568" x1="217.526" y1="84.5352" x2="218.141" y2="85.8301" gradientUnits="userSpaceOnUse">
<stop stop-color="#B7B7B7"/>
<stop offset="1" stop-color="#515151"/>
</linearGradient>
<linearGradient id="paint33_linear_3281_3568" x1="217.526" y1="82.8398" x2="218.141" y2="84.1348" gradientUnits="userSpaceOnUse">
<stop stop-color="#B7B7B7"/>
<stop offset="1" stop-color="#515151"/>
</linearGradient>
<linearGradient id="paint34_linear_3281_3568" x1="214.423" y1="82.2344" x2="215.038" y2="83.5402" gradientUnits="userSpaceOnUse">
<stop stop-color="#B7B7B7"/>
<stop offset="1" stop-color="#515151"/>
</linearGradient>
<linearGradient id="paint35_linear_3281_3568" x1="217.526" y1="81.1445" x2="218.141" y2="82.4395" gradientUnits="userSpaceOnUse">
<stop stop-color="#B7B7B7"/>
<stop offset="1" stop-color="#515151"/>
</linearGradient>
<linearGradient id="paint36_linear_3281_3568" x1="214.423" y1="80.543" x2="215.038" y2="81.8488" gradientUnits="userSpaceOnUse">
<stop stop-color="#B7B7B7"/>
<stop offset="1" stop-color="#515151"/>
</linearGradient>
<linearGradient id="paint37_linear_3281_3568" x1="211.629" y1="28.3711" x2="212.06" y2="30.0319" gradientUnits="userSpaceOnUse">
<stop stop-color="#B7B7B7"/>
<stop offset="1" stop-color="#515151"/>
</linearGradient>
<linearGradient id="paint38_linear_3281_3568" x1="207.906" y1="32.2187" x2="209.86" y2="32.7718" gradientUnits="userSpaceOnUse">
<stop stop-color="#B7B7B7"/>
<stop offset="1" stop-color="#515151"/>
</linearGradient>
<linearGradient id="paint39_linear_3281_3568" x1="210.654" y1="31.4258" x2="212.198" y2="35.3554" gradientUnits="userSpaceOnUse">
<stop stop-color="#B7B7B7"/>
<stop offset="1" stop-color="#515151"/>
</linearGradient>
<linearGradient id="paint40_linear_3281_3568" x1="217.305" y1="32.2187" x2="219.259" y2="32.7718" gradientUnits="userSpaceOnUse">
<stop stop-color="#B7B7B7"/>
<stop offset="1" stop-color="#515151"/>
</linearGradient>
<linearGradient id="paint41_linear_3281_3568" x1="209.293" y1="29.7578" x2="220.72" y2="38.5066" gradientUnits="userSpaceOnUse">
<stop stop-color="#B7B7B7"/>
<stop offset="1" stop-color="#515151"/>
</linearGradient>
<clipPath id="clip0_3281_3568">
<rect width="272" height="140" fill="white"/>
</clipPath>
</defs>
</svg>
