<svg width="272" height="140" viewBox="0 0 272 140" fill="none" xmlns="http://www.w3.org/2000/svg">
<g clip-path="url(#clip0_3297_3903)">
<g opacity="0.74">
<path d="M138.03 19.8616V0H0V19.8616H56.3284H138.03Z" fill="#FCFCFC"/>
<path d="M272 140V30.519L196.896 92.0415L213.642 117.716V140H272Z" fill="#FCFCFC"/>
<path d="M138.03 140V19.8616H56.3284L29.4328 85.7439H100.478V117.716V140H138.03Z" fill="#F9F9F9"/>
<path d="M272 30.519V0H213.642V14.0484L196.896 22.7682V92.0415L272 30.519Z" fill="#F9F9F9"/>
<path d="M56.3284 19.8616H0V140H100.478V117.716V85.7439H29.4328L56.3284 19.8616Z" fill="#FCFCFC"/>
<path d="M213.642 117.716L196.896 92.0415V22.7682L213.642 14.0484V0H138.03V19.8616V140H213.642V117.716Z" fill="#FCFCFC"/>
<path d="M138.03 0H213.642M138.03 0V19.8616M138.03 0H0V19.8616M138.03 140H213.642M138.03 140V19.8616M138.03 140H100.478M272 30.519V140H213.642M272 30.519V0H213.642M272 30.519L196.896 92.0415M196.896 92.0415L213.642 117.716V140M196.896 92.0415V22.7682L213.642 14.0484V0M138.03 19.8616H56.3284M0 19.8616H56.3284M0 19.8616V140H100.478M56.3284 19.8616L29.4328 85.7439H100.478V117.716V140" stroke="#E8E8ED"/>
</g>
<circle cx="136" cy="70" r="88.5" stroke="url(#paint0_linear_3297_3903)" stroke-opacity="0.15"/>
<circle cx="136" cy="70" r="65.5" stroke="url(#paint1_linear_3297_3903)" stroke-opacity="0.33"/>
<circle cx="135.5" cy="69.5" r="42" stroke="url(#paint2_linear_3297_3903)"/>
<circle cx="136" cy="70" r="18.5" stroke="url(#paint3_linear_3297_3903)"/>
<g filter="url(#filter0_d_3297_3903)">
<circle cx="71" cy="70" r="10" fill="white"/>
</g>
<path d="M71 75C73 73 75 71.2091 75 69C75 66.7909 73.2091 65 71 65C68.7909 65 67 66.7909 67 69C67 71.2091 69 73 71 75Z" stroke="#7D7D7D" stroke-linecap="round" stroke-linejoin="round"/>
<g filter="url(#filter1_d_3297_3903)">
<rect x="23" y="62" width="34" height="15" rx="1" fill="white"/>
</g>
<path d="M29.5283 72.061C28.7544 72.061 28.2515 71.646 28.2026 71.0552L28.2002 71.0259H28.8032L28.8057 71.0527C28.8398 71.3384 29.1133 71.5459 29.5259 71.5459C29.9336 71.5459 30.2046 71.3213 30.2046 71.0015V70.9966C30.2046 70.6255 29.9312 70.4204 29.4819 70.4204H29.0645V69.9517H29.4673C29.8555 69.9517 30.1143 69.7319 30.1143 69.4243V69.4194C30.1143 69.1021 29.8994 68.9165 29.521 68.9165C29.1499 68.9165 28.896 69.1094 28.8643 69.4121L28.8618 69.4365H28.2759L28.2783 69.4072C28.3296 68.8115 28.8105 68.416 29.521 68.416C30.2485 68.416 30.7197 68.7896 30.7197 69.3364V69.3413C30.7197 69.7783 30.4023 70.0688 29.98 70.1567V70.1689C30.5 70.2178 30.8442 70.5254 30.8442 71.0137V71.0186C30.8442 71.6313 30.3071 72.061 29.5283 72.061ZM33.0195 72V71.3237H31.2617V70.7866L32.7241 68.4771H33.6201V70.8062H34.0986V71.3237H33.6201V72H33.0195ZM31.8281 70.8208H33.0293V68.9531H33.0146L31.8281 70.8037V70.8208ZM35.3755 72V69.0776H35.3608L34.4502 69.7026V69.124L35.3706 68.4771H35.9932V72H35.3755ZM36.8208 72V71.5703L38.0659 70.3569C38.5273 69.9053 38.6274 69.7271 38.6274 69.4658V69.4609C38.625 69.146 38.3882 68.9214 38.0488 68.9214C37.6582 68.9214 37.3848 69.1826 37.3774 69.522V69.5391H36.7866V69.522C36.7866 68.8774 37.3286 68.416 38.0439 68.416C38.7495 68.416 39.2427 68.8433 39.2427 69.4243V69.4292C39.2427 69.8442 39.0498 70.125 38.4297 70.7207L37.6533 71.458V71.4849H39.2964V72H36.8208ZM39.687 70.6987V70.4375H40.1313C40.1265 70.374 40.1216 70.3057 40.1216 70.2373V70.2324C40.1216 70.1616 40.1265 70.0908 40.1313 70.0225H39.687V69.7612H40.1729C40.356 68.9312 41.0444 68.5259 41.9258 68.5259C42.0991 68.5259 42.2969 68.5454 42.4067 68.5771V69.0947C42.2969 69.0728 42.0991 69.0557 41.9404 69.0557C41.3862 69.0557 40.9712 69.2827 40.8125 69.7612H42.1357V70.0225H40.7563C40.749 70.0908 40.7441 70.1616 40.7441 70.2373V70.2422C40.7441 70.3105 40.7466 70.3765 40.7539 70.4375H42.1357V70.6987H40.8076C40.9614 71.187 41.3789 71.4189 41.9404 71.4189C42.0991 71.4189 42.2969 71.4043 42.4067 71.3799V71.8975C42.2969 71.9292 42.0991 71.9487 41.9258 71.9487C41.0371 71.9487 40.3486 71.5361 40.1704 70.6987H39.687ZM44.1426 68.4771L43.2173 72.8545H42.668L43.5908 68.4771H44.1426ZM44.3916 72V69.4121H44.9995V69.8271H45.0117C45.1216 69.5439 45.3877 69.3584 45.7295 69.3584C46.0908 69.3584 46.3521 69.5488 46.4473 69.8809H46.4619C46.5864 69.5586 46.894 69.3584 47.2676 69.3584C47.7778 69.3584 48.1123 69.7051 48.1123 70.2227V72H47.5044V70.374C47.5044 70.0542 47.3384 69.8711 47.0405 69.8711C46.7476 69.8711 46.5474 70.0884 46.5474 70.4009V72H45.9565V70.3423C45.9565 70.0518 45.7808 69.8711 45.4976 69.8711C45.2046 69.8711 44.9995 70.1006 44.9995 70.4155V72H44.3916ZM48.6128 72V71.5703L49.8579 70.3569C50.3193 69.9053 50.4194 69.7271 50.4194 69.4658V69.4609C50.417 69.146 50.1802 68.9214 49.8408 68.9214C49.4502 68.9214 49.1768 69.1826 49.1694 69.522V69.5391H48.5786V69.522C48.5786 68.8774 49.1206 68.416 49.8359 68.416C50.5415 68.416 51.0347 68.8433 51.0347 69.4243V69.4292C51.0347 69.8442 50.8418 70.125 50.2217 70.7207L49.4453 71.458V71.4849H51.0884V72H48.6128Z" fill="#7D7D7D"/>
<g filter="url(#filter2_d_3297_3903)">
<circle cx="212" cy="116" r="10" fill="white"/>
</g>
<path d="M212 121C214 119 216 117.209 216 115C216 112.791 214.209 111 212 111C209.791 111 208 112.791 208 115C208 117.209 210 119 212 121Z" stroke="#7D7D7D" stroke-linecap="round" stroke-linejoin="round"/>
<g filter="url(#filter3_d_3297_3903)">
<rect x="226" y="108" width="34" height="15" rx="1" fill="white"/>
</g>
<path d="M232.938 118V117.324H231.181V116.787L232.643 114.477H233.539V116.806H234.018V117.324H233.539V118H232.938ZM231.747 116.821H232.948V114.953H232.934L231.747 116.804V116.821ZM235.688 118.061C234.914 118.061 234.411 117.646 234.362 117.055L234.359 117.026H234.962L234.965 117.053C234.999 117.338 235.272 117.546 235.685 117.546C236.093 117.546 236.364 117.321 236.364 117.001V116.997C236.364 116.625 236.09 116.42 235.641 116.42H235.224V115.952H235.626C236.015 115.952 236.273 115.732 236.273 115.424V115.419C236.273 115.102 236.059 114.917 235.68 114.917C235.309 114.917 235.055 115.109 235.023 115.412L235.021 115.437H234.435L234.438 115.407C234.489 114.812 234.97 114.416 235.68 114.416C236.408 114.416 236.879 114.79 236.879 115.336V115.341C236.879 115.778 236.562 116.069 236.139 116.157V116.169C236.659 116.218 237.003 116.525 237.003 117.014V117.019C237.003 117.631 236.466 118.061 235.688 118.061ZM238.39 118V115.078H238.375L237.465 115.703V115.124L238.385 114.477H239.008V118H238.39ZM239.835 118V117.57L241.081 116.357C241.542 115.905 241.642 115.727 241.642 115.466V115.461C241.64 115.146 241.403 114.921 241.063 114.921C240.673 114.921 240.399 115.183 240.392 115.522V115.539H239.801V115.522C239.801 114.877 240.343 114.416 241.059 114.416C241.764 114.416 242.257 114.843 242.257 115.424V115.429C242.257 115.844 242.064 116.125 241.444 116.721L240.668 117.458V117.485H242.311V118H239.835ZM242.702 116.699V116.438H243.146C243.141 116.374 243.136 116.306 243.136 116.237V116.232C243.136 116.162 243.141 116.091 243.146 116.022H242.702V115.761H243.188C243.371 114.931 244.059 114.526 244.94 114.526C245.114 114.526 245.312 114.545 245.421 114.577V115.095C245.312 115.073 245.114 115.056 244.955 115.056C244.401 115.056 243.986 115.283 243.827 115.761H245.15V116.022H243.771C243.764 116.091 243.759 116.162 243.759 116.237V116.242C243.759 116.311 243.761 116.376 243.769 116.438H245.15V116.699H243.822C243.976 117.187 244.394 117.419 244.955 117.419C245.114 117.419 245.312 117.404 245.421 117.38V117.897C245.312 117.929 245.114 117.949 244.94 117.949C244.052 117.949 243.363 117.536 243.185 116.699H242.702ZM247.157 114.477L246.232 118.854H245.683L246.605 114.477H247.157ZM247.406 118V115.412H248.014V115.827H248.026C248.136 115.544 248.402 115.358 248.744 115.358C249.105 115.358 249.367 115.549 249.462 115.881H249.477C249.601 115.559 249.909 115.358 250.282 115.358C250.792 115.358 251.127 115.705 251.127 116.223V118H250.519V116.374C250.519 116.054 250.353 115.871 250.055 115.871C249.762 115.871 249.562 116.088 249.562 116.401V118H248.971V116.342C248.971 116.052 248.795 115.871 248.512 115.871C248.219 115.871 248.014 116.101 248.014 116.416V118H247.406ZM251.627 118V117.57L252.873 116.357C253.334 115.905 253.434 115.727 253.434 115.466V115.461C253.432 115.146 253.195 114.921 252.855 114.921C252.465 114.921 252.191 115.183 252.184 115.522V115.539H251.593V115.522C251.593 114.877 252.135 114.416 252.851 114.416C253.556 114.416 254.049 114.843 254.049 115.424V115.429C254.049 115.844 253.856 116.125 253.236 116.721L252.46 117.458V117.485H254.103V118H251.627Z" fill="#7D7D7D"/>
</g>
<defs>
<filter id="filter0_d_3297_3903" x="49.8" y="48.8" width="42.4" height="42.4" filterUnits="userSpaceOnUse" color-interpolation-filters="sRGB">
<feFlood flood-opacity="0" result="BackgroundImageFix"/>
<feColorMatrix in="SourceAlpha" type="matrix" values="0 0 0 0 0 0 0 0 0 0 0 0 0 0 0 0 0 0 127 0" result="hardAlpha"/>
<feOffset/>
<feGaussianBlur stdDeviation="5.6"/>
<feComposite in2="hardAlpha" operator="out"/>
<feColorMatrix type="matrix" values="0 0 0 0 0 0 0 0 0 0 0 0 0 0 0 0 0 0 0.25 0"/>
<feBlend mode="normal" in2="BackgroundImageFix" result="effect1_dropShadow_3297_3903"/>
<feBlend mode="normal" in="SourceGraphic" in2="effect1_dropShadow_3297_3903" result="shape"/>
</filter>
<filter id="filter1_d_3297_3903" x="11.8" y="50.8" width="56.4" height="37.4" filterUnits="userSpaceOnUse" color-interpolation-filters="sRGB">
<feFlood flood-opacity="0" result="BackgroundImageFix"/>
<feColorMatrix in="SourceAlpha" type="matrix" values="0 0 0 0 0 0 0 0 0 0 0 0 0 0 0 0 0 0 127 0" result="hardAlpha"/>
<feOffset/>
<feGaussianBlur stdDeviation="5.6"/>
<feComposite in2="hardAlpha" operator="out"/>
<feColorMatrix type="matrix" values="0 0 0 0 0 0 0 0 0 0 0 0 0 0 0 0 0 0 0.25 0"/>
<feBlend mode="normal" in2="BackgroundImageFix" result="effect1_dropShadow_3297_3903"/>
<feBlend mode="normal" in="SourceGraphic" in2="effect1_dropShadow_3297_3903" result="shape"/>
</filter>
<filter id="filter2_d_3297_3903" x="190.8" y="94.8" width="42.4" height="42.4" filterUnits="userSpaceOnUse" color-interpolation-filters="sRGB">
<feFlood flood-opacity="0" result="BackgroundImageFix"/>
<feColorMatrix in="SourceAlpha" type="matrix" values="0 0 0 0 0 0 0 0 0 0 0 0 0 0 0 0 0 0 127 0" result="hardAlpha"/>
<feOffset/>
<feGaussianBlur stdDeviation="5.6"/>
<feComposite in2="hardAlpha" operator="out"/>
<feColorMatrix type="matrix" values="0 0 0 0 0 0 0 0 0 0 0 0 0 0 0 0 0 0 0.25 0"/>
<feBlend mode="normal" in2="BackgroundImageFix" result="effect1_dropShadow_3297_3903"/>
<feBlend mode="normal" in="SourceGraphic" in2="effect1_dropShadow_3297_3903" result="shape"/>
</filter>
<filter id="filter3_d_3297_3903" x="214.8" y="96.8" width="56.4" height="37.4" filterUnits="userSpaceOnUse" color-interpolation-filters="sRGB">
<feFlood flood-opacity="0" result="BackgroundImageFix"/>
<feColorMatrix in="SourceAlpha" type="matrix" values="0 0 0 0 0 0 0 0 0 0 0 0 0 0 0 0 0 0 127 0" result="hardAlpha"/>
<feOffset/>
<feGaussianBlur stdDeviation="5.6"/>
<feComposite in2="hardAlpha" operator="out"/>
<feColorMatrix type="matrix" values="0 0 0 0 0 0 0 0 0 0 0 0 0 0 0 0 0 0 0.25 0"/>
<feBlend mode="normal" in2="BackgroundImageFix" result="effect1_dropShadow_3297_3903"/>
<feBlend mode="normal" in="SourceGraphic" in2="effect1_dropShadow_3297_3903" result="shape"/>
</filter>
<linearGradient id="paint0_linear_3297_3903" x1="44.9744" y1="-26.0864" x2="153.16" y2="148.358" gradientUnits="userSpaceOnUse">
<stop stop-color="#D9D9D9" stop-opacity="0.2"/>
<stop offset="1" stop-color="#737373"/>
</linearGradient>
<linearGradient id="paint1_linear_3297_3903" x1="136" y1="4" x2="136" y2="136" gradientUnits="userSpaceOnUse">
<stop stop-color="#D9D9D9" stop-opacity="0.2"/>
<stop offset="1" stop-color="#737373"/>
</linearGradient>
<linearGradient id="paint2_linear_3297_3903" x1="93" y1="27" x2="178" y2="128.19" gradientUnits="userSpaceOnUse">
<stop stop-color="#B7B7B7" stop-opacity="0.2"/>
<stop offset="1" stop-color="#515151"/>
</linearGradient>
<linearGradient id="paint3_linear_3297_3903" x1="117" y1="51" x2="155" y2="96.2381" gradientUnits="userSpaceOnUse">
<stop stop-color="#B7B7B7" stop-opacity="0.2"/>
<stop offset="1" stop-color="#515151"/>
</linearGradient>
<clipPath id="clip0_3297_3903">
<rect width="272" height="140" fill="white"/>
</clipPath>
</defs>
</svg>
