<svg width="272" height="140" viewBox="0 0 272 140" fill="none" xmlns="http://www.w3.org/2000/svg">
<g clip-path="url(#clip0_3275_3368)">
<circle cx="197.5" cy="69.5" r="126.25" stroke="#DEDADA" stroke-width="0.5" stroke-dasharray="5 5"/>
<circle cx="197" cy="69" r="93.75" stroke="#DEDADA" stroke-width="0.5" stroke-dasharray="5 5"/>
<circle cx="197.5" cy="69.5" r="54.25" stroke="#DEDADA" stroke-width="0.5" stroke-dasharray="5 5"/>
<g filter="url(#filter0_d_3275_3368)">
<circle cx="193" cy="123" r="10" fill="white"/>
</g>
<path d="M199.35 123.493C199.35 122.676 198.325 121.902 196.754 121.421C197.117 119.823 196.956 118.551 196.246 118.143C196.082 118.048 195.891 118.003 195.682 118.003V118.563C195.798 118.563 195.891 118.586 195.969 118.628C196.311 118.825 196.46 119.571 196.344 120.532C196.316 120.768 196.271 121.017 196.216 121.271C195.722 121.15 195.184 121.057 194.617 120.997C194.277 120.532 193.925 120.109 193.57 119.74C194.391 118.978 195.161 118.561 195.685 118.561V118C194.992 118 194.086 118.493 193.17 119.347C192.253 118.498 191.347 118.01 190.655 118.01V118.571C191.176 118.571 191.949 118.985 192.77 119.742C192.417 120.112 192.065 120.532 191.73 120.997C191.161 121.057 190.622 121.15 190.129 121.273C190.071 121.022 190.028 120.778 189.998 120.544C189.88 119.584 190.026 118.837 190.366 118.639C190.441 118.593 190.539 118.573 190.655 118.573V118.013C190.444 118.013 190.252 118.058 190.086 118.153C189.379 118.561 189.22 119.83 189.585 121.424C188.019 121.907 187 122.678 187 123.493C187 124.31 188.025 125.084 189.595 125.564C189.233 127.163 189.394 128.435 190.104 128.842C190.267 128.938 190.459 128.983 190.67 128.983C191.362 128.983 192.269 128.491 193.185 127.636C194.101 128.486 195.007 128.973 195.7 128.973C195.911 128.973 196.102 128.928 196.269 128.832C196.976 128.425 197.134 127.156 196.769 125.562C198.33 125.082 199.35 124.307 199.35 123.493ZM196.072 121.816C195.979 122.14 195.863 122.475 195.732 122.809C195.629 122.608 195.521 122.407 195.403 122.206C195.287 122.005 195.163 121.809 195.04 121.618C195.398 121.67 195.742 121.736 196.072 121.816ZM194.919 124.493C194.723 124.833 194.522 125.155 194.313 125.454C193.938 125.486 193.557 125.504 193.175 125.504C192.795 125.504 192.415 125.486 192.042 125.456C191.833 125.157 191.629 124.838 191.433 124.501C191.242 124.172 191.068 123.837 190.909 123.5C191.065 123.164 191.242 122.827 191.43 122.497C191.627 122.158 191.828 121.836 192.037 121.537C192.412 121.504 192.792 121.487 193.175 121.487C193.555 121.487 193.935 121.504 194.308 121.535C194.516 121.834 194.72 122.153 194.917 122.49C195.108 122.819 195.282 123.154 195.44 123.49C195.282 123.827 195.108 124.164 194.919 124.493ZM195.732 124.167C195.864 124.494 195.98 124.828 196.08 125.167C195.75 125.248 195.403 125.315 195.043 125.368C195.166 125.175 195.289 124.976 195.405 124.772C195.521 124.571 195.629 124.368 195.732 124.167ZM193.18 126.849C192.946 126.608 192.712 126.339 192.48 126.045C192.707 126.055 192.938 126.062 193.172 126.062C193.409 126.062 193.643 126.057 193.872 126.045C193.656 126.325 193.425 126.593 193.18 126.849ZM191.307 125.368C190.95 125.315 190.605 125.25 190.275 125.17C190.368 124.845 190.484 124.511 190.615 124.177C190.718 124.378 190.826 124.579 190.945 124.78C191.063 124.981 191.184 125.177 191.307 125.368ZM193.167 120.137C193.401 120.378 193.635 120.647 193.867 120.941C193.64 120.931 193.409 120.924 193.175 120.924C192.938 120.924 192.704 120.929 192.475 120.941C192.691 120.661 192.922 120.392 193.167 120.137ZM191.304 121.618C191.181 121.811 191.058 122.01 190.942 122.213C190.826 122.414 190.718 122.616 190.615 122.817C190.483 122.489 190.367 122.155 190.267 121.816C190.597 121.738 190.945 121.67 191.304 121.618ZM189.026 124.765C188.135 124.385 187.559 123.888 187.559 123.493C187.559 123.098 188.135 122.598 189.026 122.221C189.243 122.128 189.479 122.045 189.724 121.967C189.867 122.46 190.056 122.973 190.29 123.498C190.058 124.021 189.872 124.531 189.731 125.021C189.482 124.943 189.245 124.858 189.026 124.765ZM190.381 128.357C190.038 128.161 189.89 127.415 190.006 126.454C190.033 126.218 190.079 125.969 190.134 125.715C190.627 125.836 191.166 125.929 191.732 125.989C192.072 126.454 192.425 126.877 192.78 127.246C191.959 128.008 191.189 128.425 190.665 128.425C190.552 128.423 190.456 128.4 190.381 128.357ZM196.352 126.442C196.47 127.402 196.324 128.149 195.984 128.347C195.909 128.392 195.81 128.413 195.695 128.413C195.173 128.413 194.401 127.998 193.58 127.241C193.932 126.872 194.285 126.452 194.62 125.987C195.189 125.926 195.727 125.833 196.221 125.71C196.279 125.964 196.324 126.208 196.352 126.442ZM197.321 124.765C197.104 124.858 196.868 124.941 196.623 125.019C196.48 124.526 196.291 124.013 196.057 123.488C196.289 122.965 196.475 122.455 196.616 121.964C196.865 122.042 197.102 122.128 197.323 122.221C198.214 122.6 198.791 123.098 198.791 123.493C198.788 123.888 198.212 124.388 197.321 124.765Z" fill="#61DAFB"/>
<path d="M199.35 123.493C199.35 122.676 198.325 121.902 196.754 121.421C197.117 119.823 196.956 118.551 196.246 118.143C196.082 118.048 195.891 118.003 195.682 118.003V118.563C195.798 118.563 195.891 118.586 195.969 118.628C196.311 118.825 196.46 119.571 196.344 120.532C196.316 120.768 196.271 121.017 196.216 121.271C195.722 121.15 195.184 121.057 194.617 120.997C194.277 120.532 193.925 120.109 193.57 119.74C194.391 118.978 195.161 118.561 195.685 118.561V118C194.992 118 194.086 118.493 193.17 119.347C192.253 118.498 191.347 118.01 190.655 118.01V118.571C191.176 118.571 191.949 118.985 192.77 119.742C192.417 120.112 192.065 120.532 191.73 120.997C191.161 121.057 190.622 121.15 190.129 121.273C190.071 121.022 190.028 120.778 189.998 120.544C189.88 119.584 190.026 118.837 190.366 118.639C190.441 118.593 190.539 118.573 190.655 118.573V118.013C190.444 118.013 190.252 118.058 190.086 118.153C189.379 118.561 189.22 119.83 189.585 121.424C188.019 121.907 187 122.678 187 123.493C187 124.31 188.025 125.084 189.595 125.564C189.233 127.163 189.394 128.435 190.104 128.842C190.267 128.938 190.459 128.983 190.67 128.983C191.362 128.983 192.269 128.491 193.185 127.636C194.101 128.486 195.007 128.973 195.7 128.973C195.911 128.973 196.102 128.928 196.269 128.832C196.976 128.425 197.134 127.156 196.769 125.562C198.33 125.082 199.35 124.307 199.35 123.493ZM196.072 121.816C195.979 122.14 195.863 122.475 195.732 122.809C195.629 122.608 195.521 122.407 195.403 122.206C195.287 122.005 195.163 121.809 195.04 121.618C195.398 121.67 195.742 121.736 196.072 121.816ZM194.919 124.493C194.723 124.833 194.522 125.155 194.313 125.454C193.938 125.486 193.557 125.504 193.175 125.504C192.795 125.504 192.415 125.486 192.042 125.456C191.833 125.157 191.629 124.838 191.433 124.501C191.242 124.172 191.068 123.837 190.909 123.5C191.065 123.164 191.242 122.827 191.43 122.497C191.627 122.158 191.828 121.836 192.037 121.537C192.412 121.504 192.792 121.487 193.175 121.487C193.555 121.487 193.935 121.504 194.308 121.535C194.516 121.834 194.72 122.153 194.917 122.49C195.108 122.819 195.282 123.154 195.44 123.49C195.282 123.827 195.108 124.164 194.919 124.493ZM195.732 124.167C195.864 124.494 195.98 124.828 196.08 125.167C195.75 125.248 195.403 125.315 195.043 125.368C195.166 125.175 195.289 124.976 195.405 124.772C195.521 124.571 195.629 124.368 195.732 124.167ZM193.18 126.849C192.946 126.608 192.712 126.339 192.48 126.045C192.707 126.055 192.938 126.062 193.172 126.062C193.409 126.062 193.643 126.057 193.872 126.045C193.656 126.325 193.425 126.593 193.18 126.849ZM191.307 125.368C190.95 125.315 190.605 125.25 190.275 125.17C190.368 124.845 190.484 124.511 190.615 124.177C190.718 124.378 190.826 124.579 190.945 124.78C191.063 124.981 191.184 125.177 191.307 125.368ZM193.167 120.137C193.401 120.378 193.635 120.647 193.867 120.941C193.64 120.931 193.409 120.924 193.175 120.924C192.938 120.924 192.704 120.929 192.475 120.941C192.691 120.661 192.922 120.392 193.167 120.137ZM191.304 121.618C191.181 121.811 191.058 122.01 190.942 122.213C190.826 122.414 190.718 122.616 190.615 122.817C190.483 122.489 190.367 122.155 190.267 121.816C190.597 121.738 190.945 121.67 191.304 121.618ZM189.026 124.765C188.135 124.385 187.559 123.888 187.559 123.493C187.559 123.098 188.135 122.598 189.026 122.221C189.243 122.128 189.479 122.045 189.724 121.967C189.867 122.46 190.056 122.973 190.29 123.498C190.058 124.021 189.872 124.531 189.731 125.021C189.482 124.943 189.245 124.858 189.026 124.765ZM190.381 128.357C190.038 128.161 189.89 127.415 190.006 126.454C190.033 126.218 190.079 125.969 190.134 125.715C190.627 125.836 191.166 125.929 191.732 125.989C192.072 126.454 192.425 126.877 192.78 127.246C191.959 128.008 191.189 128.425 190.665 128.425C190.552 128.423 190.456 128.4 190.381 128.357ZM196.352 126.442C196.47 127.402 196.324 128.149 195.984 128.347C195.909 128.392 195.81 128.413 195.695 128.413C195.173 128.413 194.401 127.998 193.58 127.241C193.932 126.872 194.285 126.452 194.62 125.987C195.189 125.926 195.727 125.833 196.221 125.71C196.279 125.964 196.324 126.208 196.352 126.442ZM197.321 124.765C197.104 124.858 196.868 124.941 196.623 125.019C196.48 124.526 196.291 124.013 196.057 123.488C196.289 122.965 196.475 122.455 196.616 121.964C196.865 122.042 197.102 122.128 197.323 122.221C198.214 122.6 198.791 123.098 198.791 123.493C198.788 123.888 198.212 124.388 197.321 124.765Z" fill="url(#paint0_linear_3275_3368)"/>
<path d="M193.172 124.641C193.807 124.641 194.322 124.127 194.322 123.493C194.322 122.858 193.807 122.344 193.172 122.344C192.537 122.344 192.021 122.858 192.021 123.493C192.021 124.127 192.537 124.641 193.172 124.641Z" fill="#61DAFB"/>
<path d="M193.172 124.641C193.807 124.641 194.322 124.127 194.322 123.493C194.322 122.858 193.807 122.344 193.172 122.344C192.537 122.344 192.021 122.858 192.021 123.493C192.021 124.127 192.537 124.641 193.172 124.641Z" fill="url(#paint1_linear_3275_3368)"/>
<g filter="url(#filter1_d_3275_3368)">
<circle cx="139" r="10" fill="white"/>
</g>
<g filter="url(#filter2_d_3275_3368)">
<circle cx="74" cy="95" r="10" fill="white"/>
</g>
<path fill-rule="evenodd" clip-rule="evenodd" d="M73.7188 99.2969V95.5781H77.4375L73.7188 90V93.7188H70L73.7188 99.2969Z" fill="black"/>
<path fill-rule="evenodd" clip-rule="evenodd" d="M73.7188 99.2969V95.5781H77.4375L73.7188 90V93.7188H70L73.7188 99.2969Z" fill="url(#paint2_linear_3275_3368)"/>
<path d="M144.852 -2.72656L139.546 0.090245V6.00071C139.969 5.88877 140.451 5.62037 141.213 5.19558L142.393 4.53851C143.662 3.83155 144.296 3.47813 144.648 2.84297C145 2.20782 145 1.4174 145 -0.163316V-0.236567C145 -1.42148 145 -2.16232 144.852 -2.72656Z" fill="#1C274C"/>
<path d="M144.852 -2.72656L139.546 0.090245V6.00071C139.969 5.88877 140.451 5.62037 141.213 5.19558L142.393 4.53851C143.662 3.83155 144.296 3.47813 144.648 2.84297C145 2.20782 145 1.4174 145 -0.163316V-0.236567C145 -1.42148 145 -2.16232 144.852 -2.72656Z" fill="url(#paint3_linear_3275_3368)"/>
<path d="M138.455 6.00071V0.0902493L133.148 -2.72656C133 -2.16232 133 -1.42147 133 -0.236562V-0.163311C133 1.4174 133 2.20782 133.352 2.84298C133.705 3.47813 134.339 3.83155 135.608 4.53851L136.787 5.19558C137.55 5.62037 138.031 5.88877 138.455 6.00071Z" fill="#1C274C"/>
<path d="M138.455 6.00071V0.0902493L133.148 -2.72656C133 -2.16232 133 -1.42147 133 -0.236562V-0.163311C133 1.4174 133 2.20782 133.352 2.84298C133.705 3.47813 134.339 3.83155 135.608 4.53851L136.787 5.19558C137.55 5.62037 138.031 5.88877 138.455 6.00071Z" fill="url(#paint4_linear_3275_3368)"/>
</g>
<defs>
<filter id="filter0_d_3275_3368" x="171.8" y="101.8" width="42.4" height="42.4" filterUnits="userSpaceOnUse" color-interpolation-filters="sRGB">
<feFlood flood-opacity="0" result="BackgroundImageFix"/>
<feColorMatrix in="SourceAlpha" type="matrix" values="0 0 0 0 0 0 0 0 0 0 0 0 0 0 0 0 0 0 127 0" result="hardAlpha"/>
<feOffset/>
<feGaussianBlur stdDeviation="5.6"/>
<feComposite in2="hardAlpha" operator="out"/>
<feColorMatrix type="matrix" values="0 0 0 0 0 0 0 0 0 0 0 0 0 0 0 0 0 0 0.25 0"/>
<feBlend mode="normal" in2="BackgroundImageFix" result="effect1_dropShadow_3275_3368"/>
<feBlend mode="normal" in="SourceGraphic" in2="effect1_dropShadow_3275_3368" result="shape"/>
</filter>
<filter id="filter1_d_3275_3368" x="117.8" y="-21.2" width="42.4" height="42.4" filterUnits="userSpaceOnUse" color-interpolation-filters="sRGB">
<feFlood flood-opacity="0" result="BackgroundImageFix"/>
<feColorMatrix in="SourceAlpha" type="matrix" values="0 0 0 0 0 0 0 0 0 0 0 0 0 0 0 0 0 0 127 0" result="hardAlpha"/>
<feOffset/>
<feGaussianBlur stdDeviation="5.6"/>
<feComposite in2="hardAlpha" operator="out"/>
<feColorMatrix type="matrix" values="0 0 0 0 0 0 0 0 0 0 0 0 0 0 0 0 0 0 0.25 0"/>
<feBlend mode="normal" in2="BackgroundImageFix" result="effect1_dropShadow_3275_3368"/>
<feBlend mode="normal" in="SourceGraphic" in2="effect1_dropShadow_3275_3368" result="shape"/>
</filter>
<filter id="filter2_d_3275_3368" x="52.8" y="73.8" width="42.4" height="42.4" filterUnits="userSpaceOnUse" color-interpolation-filters="sRGB">
<feFlood flood-opacity="0" result="BackgroundImageFix"/>
<feColorMatrix in="SourceAlpha" type="matrix" values="0 0 0 0 0 0 0 0 0 0 0 0 0 0 0 0 0 0 127 0" result="hardAlpha"/>
<feOffset/>
<feGaussianBlur stdDeviation="5.6"/>
<feComposite in2="hardAlpha" operator="out"/>
<feColorMatrix type="matrix" values="0 0 0 0 0 0 0 0 0 0 0 0 0 0 0 0 0 0 0.25 0"/>
<feBlend mode="normal" in2="BackgroundImageFix" result="effect1_dropShadow_3275_3368"/>
<feBlend mode="normal" in="SourceGraphic" in2="effect1_dropShadow_3275_3368" result="shape"/>
</filter>
<linearGradient id="paint0_linear_3275_3368" x1="187" y1="118" x2="197.693" y2="132.313" gradientUnits="userSpaceOnUse">
<stop stop-color="#B7B7B7"/>
<stop offset="1" stop-color="#515151"/>
</linearGradient>
<linearGradient id="paint1_linear_3275_3368" x1="192.021" y1="122.344" x2="194.319" y2="125.082" gradientUnits="userSpaceOnUse">
<stop stop-color="#B7B7B7"/>
<stop offset="1" stop-color="#515151"/>
</linearGradient>
<linearGradient id="paint2_linear_3275_3368" x1="77.4375" y1="90" x2="68.0102" y2="98.9784" gradientUnits="userSpaceOnUse">
<stop stop-color="#B7B7B7"/>
<stop offset="1" stop-color="#515151"/>
</linearGradient>
<linearGradient id="paint3_linear_3275_3368" x1="139.546" y1="-2.72656" x2="148.033" y2="3.58791" gradientUnits="userSpaceOnUse">
<stop stop-color="#B7B7B7"/>
<stop offset="1" stop-color="#515151"/>
</linearGradient>
<linearGradient id="paint4_linear_3275_3368" x1="133" y1="-2.72656" x2="141.487" y2="3.58791" gradientUnits="userSpaceOnUse">
<stop stop-color="#B7B7B7"/>
<stop offset="1" stop-color="#515151"/>
</linearGradient>
<clipPath id="clip0_3275_3368">
<rect width="272" height="140" fill="white"/>
</clipPath>
</defs>
</svg>
